<svg width="20" height="20" viewBox="0 0 20 20" fill="none" xmlns="http://www.w3.org/2000/svg">
<path d="M13.2078 0H2.84281C2.55424 0 2.32031 0.233929 2.32031 0.687857V19.6429C2.32031 19.7661 2.55424 20 2.84281 20H17.155C17.4435 20 17.6775 19.7661 17.6775 19.6429V4.635C17.6775 4.38643 17.6442 4.30643 17.5857 4.2475L13.43 0.0917857C13.371 0.0332143 13.291 0 13.2078 0Z" fill="#E9E9E0"/>
<path d="M13.3906 0.0539551V4.28574H17.6224L13.3906 0.0539551Z" fill="#D9D7CA"/>
<path d="M6.96724 11.9013C6.84295 11.9013 6.72367 11.861 6.62188 11.7849C6.2501 11.506 6.2001 11.1956 6.22367 10.9842C6.28867 10.4028 7.0076 9.79419 8.36117 9.17419C8.89831 7.99704 9.40938 6.54669 9.71403 5.3349C9.3576 4.55918 9.01117 3.55276 9.26367 2.9624C9.35224 2.75561 9.4626 2.59704 9.66867 2.52847C9.7501 2.50133 9.95581 2.46704 10.0315 2.46704C10.2115 2.46704 10.3697 2.69883 10.4819 2.84168C10.5872 2.97597 10.8262 3.26061 10.3487 5.27097C10.8301 6.26526 11.5122 7.27811 12.1658 7.97169C12.634 7.88704 13.0369 7.84383 13.3651 7.84383C13.9244 7.84383 14.2633 7.97419 14.4015 8.24276C14.5158 8.4649 14.469 8.72454 14.2622 9.01419C14.0633 9.2924 13.789 9.43954 13.4694 9.43954C13.0351 9.43954 12.5294 9.16526 11.9655 8.62347C10.9522 8.83526 9.76903 9.21312 8.8126 9.63133C8.51403 10.2649 8.22795 10.7753 7.96153 11.1495C7.59545 11.662 7.27974 11.9013 6.96724 11.9013ZM7.91795 10.0706C7.15474 10.4995 6.84367 10.852 6.82117 11.0506C6.8176 11.0835 6.80795 11.1699 6.9751 11.2978C7.02831 11.281 7.33903 11.1392 7.91795 10.0706ZM12.7883 8.48419C13.0794 8.70811 13.1505 8.82133 13.3408 8.82133C13.4244 8.82133 13.6626 8.81776 13.773 8.66383C13.8262 8.58919 13.8469 8.54133 13.8551 8.51561C13.8112 8.4924 13.753 8.44526 13.4355 8.44526C13.2551 8.44561 13.0283 8.45347 12.7883 8.48419ZM10.1205 6.13347C9.8651 7.01704 9.52795 7.97097 9.16545 8.8349C9.91188 8.54526 10.7233 8.2924 11.4855 8.11347C11.0033 7.55347 10.5215 6.85419 10.1205 6.13347ZM9.90367 3.11133C9.86867 3.12311 9.42867 3.73883 9.93795 4.2599C10.2769 3.50454 9.91903 3.10633 9.90367 3.11133Z" fill="#CC4B4C"/>
<path d="M17.155 19.9999H2.84281C2.55424 19.9999 2.32031 19.766 2.32031 19.4774V13.9285H17.6775V19.4774C17.6775 19.766 17.4435 19.9999 17.155 19.9999Z" fill="#CC4B4C"/>
<path d="M6.20717 18.9286H5.62109V15.3301H6.65609C6.80895 15.3301 6.96038 15.3544 7.11002 15.4033C7.25966 15.4522 7.39395 15.5254 7.51288 15.6229C7.63181 15.7204 7.72788 15.8386 7.80109 15.9769C7.87431 16.1151 7.91109 16.2704 7.91109 16.4433C7.91109 16.6258 7.88002 16.7908 7.81824 16.939C7.75645 17.0872 7.67002 17.2119 7.55931 17.3126C7.44859 17.4133 7.31502 17.4915 7.15895 17.5469C7.00288 17.6022 6.83002 17.6297 6.64145 17.6297H6.20681L6.20717 18.9286ZM6.20717 15.7744V17.2001H6.74431C6.81574 17.2001 6.88645 17.1879 6.95681 17.1633C7.02681 17.139 7.09109 17.099 7.14966 17.0436C7.20824 16.9883 7.25538 16.9111 7.29109 16.8119C7.32681 16.7126 7.34466 16.5897 7.34466 16.4433C7.34466 16.3847 7.33645 16.3169 7.32038 16.2408C7.30395 16.1644 7.27074 16.0911 7.22038 16.0211C7.16966 15.9511 7.09895 15.8926 7.00788 15.8454C6.91681 15.7983 6.79609 15.7747 6.64645 15.7747L6.20717 15.7744Z" fill="white"/>
<path d="M11.5069 17.0294C11.5069 17.3254 11.4751 17.5786 11.4116 17.7886C11.348 17.9986 11.2676 18.1744 11.1698 18.3161C11.0719 18.4579 10.9623 18.5694 10.8401 18.6508C10.718 18.7322 10.6001 18.7929 10.4862 18.834C10.3723 18.8747 10.268 18.9008 10.1737 18.9122C10.0794 18.9229 10.0094 18.9286 9.96371 18.9286H8.60156V15.3301H9.68549C9.98835 15.3301 10.2544 15.3783 10.4837 15.474C10.713 15.5697 10.9037 15.6979 11.0551 15.8572C11.2066 16.0165 11.3194 16.1983 11.3944 16.4015C11.4694 16.6051 11.5069 16.8144 11.5069 17.0294ZM9.76871 18.499C10.1658 18.499 10.4523 18.3722 10.628 18.1183C10.8037 17.8644 10.8916 17.4965 10.8916 17.0147C10.8916 16.8651 10.8737 16.7169 10.838 16.5704C10.8019 16.424 10.733 16.2915 10.6305 16.1726C10.528 16.0536 10.3887 15.9576 10.213 15.8844C10.0373 15.8112 9.80942 15.7744 9.52942 15.7744H9.18763V18.499H9.76871Z" fill="white"/>
<path d="M12.9512 15.7744V16.9072H14.4551V17.3076H12.9512V18.9286H12.3555V15.3301H14.6062V15.7744H12.9512Z" fill="white"/>
</svg>
