<svg width="170" height="170" viewBox="0 0 170 170" fill="none" xmlns="http://www.w3.org/2000/svg">
<g filter="url(#filter0_i_601_3813)">
<circle cx="85" cy="85" r="75" fill="#01DF85" fill-opacity="0.15"/>
</g>
<circle cx="85" cy="85" r="80" stroke="#01DF85" stroke-opacity="0.27" stroke-width="10"/>
<path d="M69.7221 125.186C69.3869 125.186 69.0575 125.099 68.7666 124.932C68.4756 124.766 68.2333 124.526 68.0636 124.237C60.8754 111.99 41.7206 85.927 41.5279 85.6651C41.2542 85.2931 41.1235 84.835 41.1597 84.3746C41.196 83.9142 41.3967 83.4822 41.7252 83.1576L47.6132 77.3393C47.9331 77.0232 48.3537 76.8292 48.8018 76.791C49.2499 76.7529 49.6972 76.873 50.0659 77.1305L69.3211 90.5758C82.1227 74.1305 94.0192 62.781 101.838 56.0937C110.603 48.597 116.175 45.2283 116.408 45.088C116.707 44.9085 117.049 44.8137 117.398 44.8137H126.923C127.313 44.8137 127.694 44.9321 128.015 45.1533C128.336 45.3746 128.582 45.6882 128.721 46.0525C128.859 46.4169 128.884 46.8148 128.791 47.1935C128.699 47.5723 128.493 47.9139 128.202 48.1731C114.081 60.7501 99.3992 80.7333 89.5698 95.282C78.8846 111.096 71.4669 124.086 71.3932 124.215C71.2263 124.508 70.9851 124.752 70.694 124.923C70.4029 125.093 70.0721 125.184 69.7348 125.186L69.7221 125.186ZM45.6088 84.7272C49.3525 89.8487 62.5961 108.092 69.6904 119.5C72.4632 114.803 78.5479 104.726 86.3656 93.1539C95.4929 79.6428 108.77 61.4878 122.031 48.6593H117.949C116.481 49.5953 111.42 52.9499 104.244 59.0972C96.359 65.8506 84.234 77.4528 71.2477 94.3716C70.9463 94.7643 70.5051 95.0257 70.0158 95.1013C69.5266 95.1769 69.027 95.061 68.6211 94.7776L49.1773 81.2006L45.6088 84.7272Z" fill="#01DF85"/>
<defs>
<filter id="filter0_i_601_3813" x="0" y="0" width="170" height="170" filterUnits="userSpaceOnUse" color-interpolation-filters="sRGB">
<feFlood flood-opacity="0" result="BackgroundImageFix"/>
<feBlend mode="normal" in="SourceGraphic" in2="BackgroundImageFix" result="shape"/>
<feColorMatrix in="SourceAlpha" type="matrix" values="0 0 0 0 0 0 0 0 0 0 0 0 0 0 0 0 0 0 127 0" result="hardAlpha"/>
<feOffset/>
<feGaussianBlur stdDeviation="21"/>
<feComposite in2="hardAlpha" operator="arithmetic" k2="-1" k3="1"/>
<feColorMatrix type="matrix" values="0 0 0 0 0.00392157 0 0 0 0 0.87451 0 0 0 0 0.521569 0 0 0 1 0"/>
<feBlend mode="normal" in2="shape" result="effect1_innerShadow_601_3813"/>
</filter>
</defs>
</svg>
