<svg width="80" height="80" viewBox="0 0 80 80" fill="none" xmlns="http://www.w3.org/2000/svg">
<path fill-rule="evenodd" clip-rule="evenodd" d="M57.1392 67.7974L53.6362 62.5788C53.3962 62.2211 52.9101 62.1247 52.5526 62.3655C52.1948 62.6063 52.0984 63.0908 52.339 63.4491L56.3203 69.3789C56.4426 69.5611 56.6348 69.6838 56.852 69.716C56.8907 69.7216 56.9296 69.7249 56.9689 69.7249C57.1481 69.7249 57.3217 69.6625 57.4609 69.5496L68.727 60.4028C69.0617 60.1311 69.1123 59.6377 68.8404 59.3035C68.5684 58.9691 68.0756 58.9177 67.7409 59.1894L57.1392 67.7974ZM33.2811 7.83597C33.2811 7.23347 32.7904 6.74191 32.1878 6.74191C31.5851 6.74191 31.0937 7.23332 31.0937 7.83597C31.0937 8.43769 31.5861 8.92956 32.1878 8.92956C32.7895 8.92972 33.2811 8.43769 33.2811 7.83597ZM61.4296 53.7811C67.7537 53.7811 72.8986 58.926 72.8986 65.25C72.8986 71.5741 67.7537 76.7186 61.4296 76.7186C55.1054 76.7186 49.9614 71.5743 49.9614 65.25C49.9614 58.926 55.1053 53.7811 61.4296 53.7811ZM25.1692 32.3547H19.9254C19.0629 32.3547 18.3623 31.6547 18.3623 30.7921V25.5483C18.3623 24.6864 19.0637 23.986 19.9254 23.986H25.1692C26.0314 23.986 26.7315 24.6863 26.7315 25.5483V30.7921C26.7315 31.655 26.0321 32.3547 25.1692 32.3547ZM25.1692 40.0407C26.0315 40.0407 26.7315 40.7411 26.7315 41.6033V46.8471C26.7315 47.7099 26.032 48.4094 25.1692 48.4094H19.9254C19.0631 48.4094 18.3623 47.7097 18.3623 46.8471V41.6033C18.3623 40.7414 19.0636 40.0407 19.9254 40.0407H25.1692ZM25.1692 56.0952C26.0314 56.0952 26.7315 56.7958 26.7315 57.6578V62.903C26.7315 63.7654 26.0312 64.4639 25.1692 64.4639H19.9254C19.0637 64.4639 18.3623 63.7652 18.3623 62.903V57.6578C18.3623 56.796 19.0636 56.0952 19.9254 56.0952H25.1692ZM32.1876 3.28113C34.6992 3.28113 36.7425 5.32457 36.7425 7.83597C36.7425 8.26707 37.0918 8.61706 37.5232 8.61706H43.3184V15.0935H21.0562V8.61722H26.8528C27.2837 8.61722 27.6343 8.26691 27.6343 7.83613C27.6343 5.32472 29.6761 3.28113 32.1876 3.28113Z" fill="#A4D4FF"/>
<path fill-rule="evenodd" clip-rule="evenodd" d="M30.7813 7.83594C30.7813 7.06078 31.4128 6.42953 32.1878 6.42953C32.9628 6.42953 33.5936 7.06078 33.5936 7.83594C33.5936 8.60938 32.9628 9.24203 32.1878 9.24203C31.4128 9.24219 30.7813 8.60953 30.7813 7.83594ZM68.9239 60.6453L57.6578 69.792C57.4608 69.9514 57.2174 70.0373 56.9689 70.0373C56.9145 70.0373 56.8608 70.0327 56.8064 70.025C56.5013 69.9797 56.2314 69.8078 56.0608 69.5531L52.0795 63.6233C51.742 63.1217 51.8766 62.4438 52.378 62.1063C52.8794 61.7688 53.5595 61.903 53.8955 62.4047L57.2077 67.3391L67.5436 58.9467C68.0127 58.5656 68.7016 58.6375 69.0825 59.1061C69.4642 59.5748 69.3922 60.2639 68.9239 60.6453ZM61.4297 76.4061C67.5814 76.4061 72.5863 71.4016 72.5863 65.25C72.5863 59.0984 67.5814 54.0936 61.4297 54.0936C55.278 54.0936 50.2739 59.0984 50.2739 65.25C50.2739 71.4016 55.2778 76.4061 61.4297 76.4061ZM61.4297 51.9062C54.0722 51.9062 48.0858 57.892 48.0858 65.25C48.0858 72.6078 54.072 78.5938 61.4297 78.5938C68.788 78.5938 74.7734 72.6078 74.7734 65.25C74.7734 57.8922 68.7878 51.9062 61.4297 51.9062ZM39.5989 61.4719C40.2033 61.4719 40.6922 61.9609 40.6922 62.5655C40.6922 63.1703 40.2033 63.6591 39.5989 63.6591H33.8559C33.253 63.6591 32.7627 63.1703 32.7627 62.5655C32.7627 61.9609 33.253 61.4719 33.8559 61.4719H39.5989ZM45.3403 59.0889H33.8559C33.253 59.0889 32.7627 58.5997 32.7627 57.9952C32.7627 57.3906 33.253 56.9016 33.8559 56.9016H45.3403C45.9455 56.9016 46.4344 57.3906 46.4344 57.9952C46.4344 58.5998 45.9455 59.0889 45.3403 59.0889ZM46.4344 41.9406C46.4344 42.5452 45.9455 43.0342 45.3403 43.0342H33.8559C33.253 43.0342 32.7627 42.5452 32.7627 41.9406C32.7627 41.3358 33.253 40.8467 33.8559 40.8467H45.3403C45.9455 40.8467 46.4344 41.3358 46.4344 41.9406ZM32.7627 46.5109C32.7627 45.9061 33.253 45.4173 33.8559 45.4173H39.5989C40.2033 45.4173 40.6922 45.9061 40.6922 46.5109C40.6922 47.1155 40.2033 47.6047 39.5989 47.6047H33.8559C33.2531 47.6047 32.7627 47.1155 32.7627 46.5109ZM46.4344 25.8858C46.4344 26.4906 45.9455 26.9797 45.3403 26.9797H33.8559C33.253 26.9797 32.7627 26.4906 32.7627 25.8858C32.7627 25.2813 33.253 24.792 33.8559 24.792H45.3403C45.9455 24.792 46.4344 25.2813 46.4344 25.8858ZM32.7627 30.4562C32.7627 29.8514 33.253 29.3623 33.8559 29.3623H39.5989C40.2033 29.3623 40.6922 29.8516 40.6922 30.4562C40.6922 31.0594 40.2033 31.55 39.5989 31.55H33.8559C33.2531 31.55 32.7627 31.0594 32.7627 30.4562ZM26.4191 62.903C26.4191 63.5922 25.8595 64.1514 25.1692 64.1514H19.9255C19.2358 64.1514 18.6748 63.5923 18.6748 62.903V57.6578C18.6748 56.9688 19.2358 56.4077 19.9255 56.4077H25.1692C25.8595 56.4077 26.4191 56.9689 26.4191 57.6578V62.903ZM25.1692 54.2203H19.9255C18.03 54.2203 16.4875 55.7627 16.4875 57.6578V62.903C16.4875 64.7981 18.03 66.3391 19.9255 66.3391H25.1692C27.0639 66.3391 28.6064 64.7983 28.6064 62.903V57.6578C28.6064 55.7627 27.0639 54.2203 25.1692 54.2203ZM26.4191 46.847C26.4191 47.5375 25.8595 48.0969 25.1692 48.0969H19.9255C19.2358 48.0969 18.6748 47.5375 18.6748 46.847V41.6033C18.6748 40.9141 19.2358 40.3531 19.9255 40.3531H25.1692C25.8595 40.3531 26.4191 40.9141 26.4191 41.6033V46.847ZM28.6064 41.6033C28.6064 39.7077 27.0639 38.1658 25.1692 38.1658H19.9255C18.03 38.1658 16.4875 39.7078 16.4875 41.6033V46.847C16.4875 48.7438 18.03 50.2845 19.9255 50.2845H25.1692C27.0639 50.2845 28.6064 48.7438 28.6064 46.847V41.6033ZM26.4191 30.792C26.4191 31.4827 25.8595 32.0422 25.1692 32.0422H19.9255C19.2358 32.0422 18.6748 31.4827 18.6748 30.792V25.5483C18.6748 24.8592 19.2358 24.2984 19.9255 24.2984H25.1692C25.8595 24.2984 26.4191 24.8594 26.4191 25.5483V30.792ZM28.6064 25.5483C28.6064 23.6531 27.0639 22.1108 25.1692 22.1108H19.9255C18.03 22.1108 16.4875 23.6531 16.4875 25.5483V30.792C16.4875 32.6889 18.03 34.2295 19.9255 34.2295H25.1692C27.0639 34.2295 28.6064 32.6889 28.6064 30.792V25.5483ZM21.3688 8.92969V14.7811H43.0061V8.92969H37.5234C36.9191 8.92969 36.4302 8.43922 36.4302 7.83609C36.4302 5.49688 34.5266 3.59375 32.1878 3.59375C29.8491 3.59375 27.9469 5.49688 27.9469 7.83609C27.9469 8.43922 27.4566 8.92969 26.8528 8.92969H21.3688ZM51.1158 76.4061H8.81891C8.04547 76.4061 7.41391 75.7766 7.41391 75.0014V13.3764C7.41391 12.6014 8.04547 11.9719 8.81891 11.9719H19.1814V14.7811H11.3173C10.7144 14.7811 10.2233 15.2702 10.2233 15.875V72.503C10.2233 73.1078 10.7144 73.5969 11.3173 73.5969H47.1484C47.7536 73.5969 48.2425 73.1078 48.2425 72.503C48.2425 71.8998 47.7536 71.4094 47.1484 71.4094H12.4113V16.9688H51.9641V51.5967C51.9641 52.2016 52.453 52.6908 53.0581 52.6908C53.6625 52.6908 54.1514 52.2017 54.1514 51.5967V15.875C54.1514 15.2702 53.6625 14.7811 53.0581 14.7811H45.1941V11.972H55.5566C56.3316 11.972 56.9608 12.6016 56.9608 13.3766V49.5938C56.9608 50.1983 57.4505 50.6873 58.0548 50.6873C58.6577 50.6873 59.1481 50.1983 59.1481 49.5938V13.3764C59.1481 11.3952 57.5372 9.78438 55.5566 9.78438H45.1941V7.83594C45.1941 7.23109 44.7044 6.74187 44.1 6.74187H38.5233C38.0034 3.71562 35.3595 1.40625 32.1877 1.40625C29.0159 1.40625 26.3734 3.71562 25.8514 6.74203H20.2747C19.6703 6.74203 19.1814 7.23125 19.1814 7.83609V9.78453H8.81891C6.83891 9.78453 5.22656 11.3955 5.22656 13.3766V75.0016C5.22656 76.9828 6.83891 78.5938 8.81891 78.5938H51.1156C51.7206 78.5938 52.2089 78.1047 52.2089 77.5C52.2091 76.8969 51.7208 76.4061 51.1158 76.4061Z" fill="#3D7DF6"/>
</svg>
