<svg width="25" height="25" viewBox="0 0 25 25" fill="none" xmlns="http://www.w3.org/2000/svg">
<path d="M17.7083 23.4375H4.16667C3.47625 23.4367 2.81435 23.162 2.32616 22.6738C1.83796 22.1856 1.56333 21.5237 1.5625 20.8333V4.16667C1.56333 3.47625 1.83796 2.81435 2.32616 2.32616C2.81435 1.83796 3.47625 1.56333 4.16667 1.5625H13.6615C14.0241 1.56329 14.3827 1.6394 14.7144 1.78598C15.0461 1.93257 15.3438 2.14644 15.5885 2.41406L19.6354 6.86875C20.0728 7.34681 20.3145 7.97183 20.3125 8.61979V13.8125C20.3125 13.9506 20.2576 14.0831 20.16 14.1808C20.0623 14.2785 19.9298 14.3333 19.7917 14.3333C19.6535 14.3333 19.5211 14.2785 19.4234 14.1808C19.3257 14.0831 19.2708 13.9506 19.2708 13.8125V8.61979C19.2724 8.23174 19.1279 7.8573 18.8661 7.57083L14.8177 3.11562C14.6708 2.95512 14.4922 2.82681 14.2932 2.73878C14.0942 2.65075 13.8791 2.60492 13.6615 2.60417H4.16667C3.75227 2.60417 3.35484 2.76879 3.06181 3.06181C2.76879 3.35484 2.60417 3.75227 2.60417 4.16667V20.8333C2.60417 21.2477 2.76879 21.6452 3.06181 21.9382C3.35484 22.2312 3.75227 22.3958 4.16667 22.3958H17.7083C17.8465 22.3958 17.9789 22.4507 18.0766 22.5484C18.1743 22.6461 18.2292 22.7785 18.2292 22.9167C18.2292 23.0548 18.1743 23.1873 18.0766 23.285C17.9789 23.3826 17.8465 23.4375 17.7083 23.4375Z" fill="#01DF85"/>
<path d="M17.7083 8.85417H15.625C15.2106 8.85417 14.8132 8.68955 14.5201 8.39652C14.2271 8.1035 14.0625 7.70607 14.0625 7.29167V2.30208C14.0625 2.16395 14.1174 2.03147 14.215 1.9338C14.3127 1.83612 14.4452 1.78125 14.5833 1.78125C14.7215 1.78125 14.8539 1.83612 14.9516 1.9338C15.0493 2.03147 15.1042 2.16395 15.1042 2.30208V7.29167C15.1042 7.4298 15.159 7.56228 15.2567 7.65995C15.3544 7.75763 15.4869 7.8125 15.625 7.8125H17.7083C17.8465 7.8125 17.9789 7.86737 18.0766 7.96505C18.1743 8.06272 18.2292 8.1952 18.2292 8.33333C18.2292 8.47147 18.1743 8.60394 18.0766 8.70162C17.9789 8.79929 17.8465 8.85417 17.7083 8.85417Z" fill="#01DF85"/>
<path d="M7.0319 9.11458H5.4694C5.19313 9.11458 4.92818 9.00484 4.73283 8.80949C4.53748 8.61414 4.42773 8.34918 4.42773 8.07292V6.51042C4.42773 6.23415 4.53748 5.9692 4.73283 5.77385C4.92818 5.5785 5.19313 5.46875 5.4694 5.46875H7.0319C7.30817 5.46875 7.57312 5.5785 7.76847 5.77385C7.96382 5.9692 8.07357 6.23415 8.07357 6.51042V8.07292C8.07357 8.34918 7.96382 8.61414 7.76847 8.80949C7.57312 9.00484 7.30817 9.11458 7.0319 9.11458ZM5.4694 6.51042V8.07292H7.0319V6.51042H5.4694Z" fill="#01DF85"/>
<path d="M7.0319 14.3231H5.4694C5.19313 14.3231 4.92818 14.2133 4.73283 14.018C4.53748 13.8226 4.42773 13.5577 4.42773 13.2814V11.7189C4.42773 11.4426 4.53748 11.1777 4.73283 10.9823C4.92818 10.787 5.19313 10.6772 5.4694 10.6772H7.0319C7.30817 10.6772 7.57312 10.787 7.76847 10.9823C7.96382 11.1777 8.07357 11.4426 8.07357 11.7189V13.2814C8.07357 13.5577 7.96382 13.8226 7.76847 14.018C7.57312 14.2133 7.30817 14.3231 7.0319 14.3231ZM5.4694 11.7189V13.2814H7.0319V11.7189H5.4694Z" fill="#01DF85"/>
<path d="M13.0202 14.0627H9.37435C9.23622 14.0627 9.10374 14.0078 9.00606 13.9101C8.90839 13.8124 8.85352 13.68 8.85352 13.5418C8.85352 13.4037 8.90839 13.2712 9.00606 13.1735C9.10374 13.0759 9.23622 13.021 9.37435 13.021H13.0202C13.1583 13.021 13.2908 13.0759 13.3885 13.1735C13.4861 13.2712 13.541 13.4037 13.541 13.5418C13.541 13.68 13.4861 13.8124 13.3885 13.9101C13.2908 14.0078 13.1583 14.0627 13.0202 14.0627Z" fill="#01DF85"/>
<path d="M11.9785 11.9792H9.37435C9.23622 11.9792 9.10374 11.9243 9.00606 11.8266C8.90839 11.7289 8.85352 11.5965 8.85352 11.4583C8.85352 11.3202 8.90839 11.1877 9.00606 11.09C9.10374 10.9924 9.23622 10.9375 9.37435 10.9375H11.9785C12.1166 10.9375 12.2491 10.9924 12.3468 11.09C12.4445 11.1877 12.4993 11.3202 12.4993 11.4583C12.4993 11.5965 12.4445 11.7289 12.3468 11.8266C12.2491 11.9243 12.1166 11.9792 11.9785 11.9792Z" fill="#01DF85"/>
<path d="M7.0319 19.5311H5.4694C5.19313 19.5311 4.92818 19.4213 4.73283 19.226C4.53748 19.0306 4.42773 18.7657 4.42773 18.4894V16.9269C4.42773 16.6507 4.53748 16.3857 4.73283 16.1904C4.92818 15.995 5.19313 15.8853 5.4694 15.8853H7.0319C7.30817 15.8853 7.57312 15.995 7.76847 16.1904C7.96382 16.3857 8.07357 16.6507 8.07357 16.9269V18.4894C8.07357 18.7657 7.96382 19.0306 7.76847 19.226C7.57312 19.4213 7.30817 19.5311 7.0319 19.5311ZM5.4694 16.9269V18.4894H7.0319V16.9269H5.4694Z" fill="#01DF85"/>
<path d="M13.0202 19.2707H9.37435C9.23622 19.2707 9.10374 19.2158 9.00606 19.1181C8.90839 19.0204 8.85352 18.888 8.85352 18.7498C8.85352 18.6117 8.90839 18.4792 9.00606 18.3816C9.10374 18.2839 9.23622 18.229 9.37435 18.229H13.0202C13.1583 18.229 13.2908 18.2839 13.3885 18.3816C13.4861 18.4792 13.541 18.6117 13.541 18.7498C13.541 18.888 13.4861 19.0204 13.3885 19.1181C13.2908 19.2158 13.1583 19.2707 13.0202 19.2707Z" fill="#01DF85"/>
<path d="M11.9785 17.1877H9.37435C9.23622 17.1877 9.10374 17.1328 9.00606 17.0351C8.90839 16.9374 8.85352 16.805 8.85352 16.6668C8.85352 16.5287 8.90839 16.3962 9.00606 16.2985C9.10374 16.2009 9.23622 16.146 9.37435 16.146H11.9785C12.1166 16.146 12.2491 16.2009 12.3468 16.2985C12.4445 16.3962 12.4993 16.5287 12.4993 16.6668C12.4993 16.805 12.4445 16.9374 12.3468 17.0351C12.2491 17.1328 12.1166 17.1877 11.9785 17.1877Z" fill="#01DF85"/>
<path d="M13.0202 8.85417H9.37435C9.23622 8.85417 9.10374 8.79929 9.00606 8.70162C8.90839 8.60394 8.85352 8.47147 8.85352 8.33333C8.85352 8.1952 8.90839 8.06272 9.00606 7.96505C9.10374 7.86737 9.23622 7.8125 9.37435 7.8125H13.0202C13.1583 7.8125 13.2908 7.86737 13.3885 7.96505C13.4861 8.06272 13.541 8.1952 13.541 8.33333C13.541 8.47147 13.4861 8.60394 13.3885 8.70162C13.2908 8.79929 13.1583 8.85417 13.0202 8.85417Z" fill="#01DF85"/>
<path d="M11.9785 6.77067H9.37435C9.23622 6.77067 9.10374 6.7158 9.00606 6.61812C8.90839 6.52045 8.85352 6.38797 8.85352 6.24984C8.85352 6.1117 8.90839 5.97923 9.00606 5.88155C9.10374 5.78388 9.23622 5.729 9.37435 5.729H11.9785C12.1166 5.729 12.2491 5.78388 12.3468 5.88155C12.4445 5.97923 12.4993 6.1117 12.4993 6.24984C12.4993 6.38797 12.4445 6.52045 12.3468 6.61812C12.2491 6.7158 12.1166 6.77067 11.9785 6.77067Z" fill="#01DF85"/>
<path d="M17.7078 20.3125C17.5697 20.3125 17.4372 20.2576 17.3396 20.1599L15.7771 18.5974C15.6822 18.4992 15.6297 18.3676 15.6309 18.231C15.6321 18.0945 15.6868 17.9638 15.7834 17.8673C15.88 17.7707 16.0106 17.7159 16.1472 17.7148C16.2837 17.7136 16.4153 17.7661 16.5135 17.8609L17.6729 19.0203L19.9125 16.3333C19.9556 16.2789 20.0093 16.2337 20.0702 16.2003C20.1311 16.167 20.198 16.1461 20.2671 16.139C20.3362 16.1319 20.406 16.1386 20.4724 16.1589C20.5389 16.1791 20.6006 16.2125 20.6539 16.2569C20.7073 16.3014 20.7512 16.3561 20.7831 16.4178C20.815 16.4795 20.8342 16.5469 20.8397 16.6161C20.8452 16.6854 20.8367 16.755 20.8149 16.8209C20.793 16.8868 20.7582 16.9477 20.7125 17L18.1083 20.125C18.062 20.1806 18.0046 20.226 17.9397 20.2582C17.8749 20.2904 17.8041 20.3087 17.7318 20.312L17.7078 20.3125Z" fill="#01DF85"/>
<path d="M18.2298 23.4377C17.1997 23.4377 16.1927 23.1322 15.3362 22.5599C14.4797 21.9876 13.8122 21.1742 13.4179 20.2225C13.0237 19.2708 12.9206 18.2236 13.1216 17.2132C13.3225 16.2029 13.8186 15.2749 14.547 14.5465C15.2754 13.8181 16.2034 13.322 17.2137 13.1211C18.224 12.9201 19.2713 13.0233 20.223 13.4175C21.1747 13.8117 21.9881 14.4792 22.5604 15.3357C23.1327 16.1922 23.4382 17.1992 23.4382 18.2293C23.4366 19.6102 22.8874 20.9341 21.911 21.9105C20.9346 22.8869 19.6107 23.4361 18.2298 23.4377ZM18.2298 14.0627C17.4057 14.0627 16.6001 14.307 15.9149 14.7649C15.2297 15.2227 14.6957 15.8735 14.3803 16.6348C14.065 17.3962 13.9824 18.234 14.1432 19.0422C14.304 19.8505 14.7008 20.5929 15.2835 21.1756C15.8663 21.7583 16.6087 22.1552 17.4169 22.3159C18.2252 22.4767 19.063 22.3942 19.8243 22.0788C20.5857 21.7635 21.2364 21.2294 21.6943 20.5442C22.1521 19.859 22.3965 19.0534 22.3965 18.2293C22.3952 17.1246 21.9559 16.0656 21.1747 15.2844C20.3936 14.5033 19.3345 14.0639 18.2298 14.0627Z" fill="#01DF85"/>
</svg>
