<svg width="14" height="15" viewBox="0 0 14 15" fill="none" xmlns="http://www.w3.org/2000/svg">
<g clip-path="url(#clip0_1045_2502)">
<path d="M11.1012 14.5H2.9025C2.5 14.5 2.17188 14.1719 2.17188 13.7694V3.14908C2.17188 2.74658 2.5 2.41846 2.9025 2.41846H4.29375C4.46656 2.41846 4.60656 2.55846 4.60656 2.73127C4.60656 2.90408 4.46656 3.04408 4.29375 3.04408H2.9025C2.84562 3.04408 2.7975 3.09002 2.7975 3.14908V13.7694C2.7975 13.8263 2.84344 13.8744 2.9025 13.8744H11.1012C11.1581 13.8744 11.2063 13.8285 11.2063 13.7694V3.14908C11.2063 3.09221 11.1603 3.04408 11.1012 3.04408H9.70781C9.535 3.04408 9.395 2.90408 9.395 2.73127C9.395 2.55846 9.535 2.41846 9.70781 2.41846H11.1012C11.5037 2.41846 11.8319 2.74658 11.8319 3.14908V13.7694C11.8319 14.1719 11.5037 14.5 11.1012 14.5Z" fill="#3D7DF6"/>
<path d="M5.53516 6.6009H4.15266C3.97984 6.6009 3.83984 6.4609 3.83984 6.28809V4.90559C3.83984 4.73277 3.97984 4.59277 4.15266 4.59277H5.53516C5.70797 4.59277 5.84797 4.73277 5.84797 4.90559V6.28809C5.85016 6.4609 5.71016 6.6009 5.53516 6.6009ZM4.46547 5.97527H5.22234V5.2184H4.46547V5.97527Z" fill="#3D7DF6"/>
<path d="M9.85297 5.45692H6.65266C6.47984 5.45692 6.33984 5.31692 6.33984 5.14411C6.33984 4.9713 6.47984 4.8313 6.65266 4.8313H9.85297C10.0258 4.8313 10.1658 4.9713 10.1658 5.14411C10.1658 5.31692 10.028 5.45692 9.85297 5.45692Z" fill="#3D7DF6"/>
<path d="M8.71766 6.36464H6.65266C6.47984 6.36464 6.33984 6.22464 6.33984 6.05183C6.33984 5.87901 6.47984 5.73901 6.65266 5.73901H8.71766C8.89047 5.73901 9.03047 5.87901 9.03047 6.05183C9.03266 6.22464 8.89047 6.36464 8.71766 6.36464Z" fill="#3D7DF6"/>
<path d="M5.53516 9.89314H4.15266C3.97984 9.89314 3.83984 9.75313 3.83984 9.58032V8.19782C3.83984 8.02501 3.97984 7.88501 4.15266 7.88501H5.53516C5.70797 7.88501 5.84797 8.02501 5.84797 8.19782V9.58032C5.85016 9.75313 5.71016 9.89314 5.53516 9.89314ZM4.46547 9.26532H5.22234V8.50845H4.46547V9.26532Z" fill="#3D7DF6"/>
<path d="M9.85297 8.74696H6.65266C6.47984 8.74696 6.33984 8.60696 6.33984 8.43415C6.33984 8.26134 6.47984 8.12134 6.65266 8.12134H9.85297C10.0258 8.12134 10.1658 8.26134 10.1658 8.43415C10.1658 8.60696 10.028 8.74696 9.85297 8.74696Z" fill="#3D7DF6"/>
<path d="M8.71766 9.65468H6.65266C6.47984 9.65468 6.33984 9.51468 6.33984 9.34186C6.33984 9.16905 6.47984 9.02905 6.65266 9.02905H8.71766C8.89047 9.02905 9.03047 9.16905 9.03047 9.34186C9.03047 9.51468 8.89047 9.65468 8.71766 9.65468Z" fill="#3D7DF6"/>
<path d="M5.53516 13.1832H4.15266C3.97984 13.1832 3.83984 13.0432 3.83984 12.8704V11.4879C3.83984 11.315 3.97984 11.175 4.15266 11.175H5.53516C5.70797 11.175 5.84797 11.315 5.84797 11.4879V12.8704C5.85016 13.0432 5.71016 13.1832 5.53516 13.1832ZM4.46547 12.5575H5.22234V11.8007H4.46547V12.5575Z" fill="#3D7DF6"/>
<path d="M9.00422 12.037H6.65266C6.47984 12.037 6.33984 11.897 6.33984 11.7242C6.33984 11.5514 6.47984 11.4114 6.65266 11.4114H9.00203C9.17484 11.4114 9.31484 11.5514 9.31484 11.7242C9.31484 11.897 9.17703 12.037 9.00422 12.037Z" fill="#3D7DF6"/>
<path d="M8.71766 12.9469H6.65266C6.47984 12.9469 6.33984 12.8069 6.33984 12.6341C6.33984 12.4613 6.47984 12.3213 6.65266 12.3213H8.71766C8.89047 12.3213 9.03047 12.4613 9.03047 12.6341C9.03047 12.8069 8.89047 12.9469 8.71766 12.9469Z" fill="#3D7DF6"/>
<path d="M9.28953 3.84688H4.71109C4.30859 3.84688 3.98047 3.51875 3.98047 3.11625V2.31125C3.98047 1.90875 4.30859 1.58063 4.71109 1.58063H5.80047C5.86391 0.974688 6.37797 0.5 7.00141 0.5C7.62484 0.5 8.13672 0.974688 8.20016 1.58063H9.28953C9.69203 1.58063 10.0202 1.90875 10.0202 2.31125V3.11406C10.0202 3.51875 9.69203 3.84688 9.28953 3.84688ZM4.71109 2.20844C4.65422 2.20844 4.60609 2.25438 4.60609 2.31344V3.11625C4.60609 3.17313 4.65203 3.22125 4.71109 3.22125H9.28953C9.34641 3.22125 9.39453 3.17531 9.39453 3.11625V2.31125C9.39453 2.25438 9.34859 2.20625 9.28953 2.20625H7.87203C7.77797 2.20625 7.68828 2.1625 7.62703 2.09031C7.56797 2.01594 7.54391 1.91969 7.56578 1.82563C7.57453 1.78625 7.57891 1.7425 7.57891 1.70313C7.57891 1.38375 7.31859 1.12563 7.00141 1.12563C6.68422 1.12563 6.42391 1.38594 6.42391 1.70313C6.42391 1.7425 6.42828 1.78406 6.43703 1.82563C6.45672 1.9175 6.43484 2.01594 6.37359 2.08813C6.31453 2.1625 6.22484 2.20406 6.13078 2.20406H4.71109V2.20844Z" fill="#3D7DF6"/>
</g>
<defs>
<clipPath id="clip0_1045_2502">
<rect width="14" height="14" fill="white" transform="translate(0 0.5)"/>
</clipPath>
</defs>
</svg>
