<svg width="14" height="15" viewBox="0 0 14 15" fill="none" xmlns="http://www.w3.org/2000/svg">
<path d="M7.00561 1.66663C8.41663 1.66663 9.56024 2.83329 9.57731 4.27413H9.69679C11.2671 4.27413 12.5416 5.58663 12.5416 7.19663V10.4166C12.5416 12.0266 11.2671 13.3333 9.69679 13.3333H4.30305C2.73272 13.3333 1.45825 12.0266 1.45825 10.4166V7.19663C1.45825 5.58663 2.73272 4.27413 4.30305 4.27413H4.42253C4.43391 3.57413 4.70132 2.92079 5.18494 2.43079C5.67424 1.93496 6.3001 1.68413 7.00561 1.66663ZM9.16196 4.96829C8.92869 4.96829 8.73525 5.16663 8.73525 5.40579V6.08246C8.73525 6.32163 8.92869 6.51996 9.16196 6.51996C9.40093 6.51996 9.58869 6.32163 9.58869 6.08246V5.40579C9.58869 5.16663 9.40093 4.96829 9.16196 4.96829ZM4.78667 4.96829C4.55339 4.96829 4.35995 5.16663 4.35995 5.40579V6.08246C4.35995 6.32163 4.55339 6.51996 4.78667 6.51996C5.02563 6.51996 5.21339 6.32163 5.21339 6.08246V5.40579C5.21339 5.16663 5.02563 4.96829 4.78667 4.96829ZM7.00561 2.54163C6.56751 2.54163 6.11234 2.72246 5.78234 3.05496C5.46373 3.38163 5.28735 3.81329 5.27597 4.27413H8.72387C8.7068 3.31746 7.94439 2.54163 7.00561 2.54163Z" fill="#006EE9"/>
</svg>
