<svg width="21" height="20" viewBox="0 0 21 20" fill="none" xmlns="http://www.w3.org/2000/svg">
<g clip-path="url(#clip0_590_12175)">
<path d="M10.5 20C16.0133 20 20.5 15.5133 20.5 10C20.5 4.48668 16.0134 0 10.5 0C4.98662 0 0.5 4.48668 0.5 10C0.5 15.5133 4.98668 20 10.5 20ZM10.5 1.33331C15.28 1.33331 19.1667 5.21996 19.1667 10C19.1667 14.78 15.28 18.6667 10.5 18.6667C5.71996 18.6667 1.83331 14.78 1.83331 10C1.83331 5.21996 5.72002 1.33331 10.5 1.33331Z" fill="#3D7DF6"/>
<path d="M13.4173 13.1867C13.5407 13.2866 13.6873 13.3333 13.834 13.3333C14.0306 13.3333 14.224 13.2467 14.3539 13.0833C14.584 12.7967 14.5373 12.3767 14.2506 12.1467L11.1673 9.67999V4.66666C11.1673 4.29998 10.8673 4 10.5006 4C10.134 4 9.83398 4.29998 9.83398 4.66666V10C9.83398 10.2034 9.92734 10.3933 10.084 10.52L13.4173 13.1867Z" fill="#3D7DF6"/>
</g>
<defs>
<clipPath id="clip0_590_12175">
<rect width="20" height="20" fill="white" transform="translate(0.5)"/>
</clipPath>
</defs>
</svg>
