<svg width="15" height="15" viewBox="0 0 15 15" fill="none" xmlns="http://www.w3.org/2000/svg">
<path d="M12.5901 1.01074H2.39427C1.32826 1.01074 0.460938 1.87789 0.460938 2.94408V9.18371C0.460938 10.2475 1.32448 11.1133 2.38741 11.117V13.9485L6.45655 11.117H12.5901C13.6561 11.117 14.5234 10.2497 14.5234 9.18371V2.94408C14.5234 1.87789 13.6561 1.01074 12.5901 1.01074ZM13.6995 9.18371C13.6995 9.79534 13.2018 10.2931 12.5901 10.2931H6.19803L3.21138 12.3714V10.2931H2.39427C1.78256 10.2931 1.28491 9.79534 1.28491 9.18371V2.94408C1.28491 2.33228 1.78256 1.83472 2.39427 1.83472H12.5901C13.2018 1.83472 13.6995 2.33228 13.6995 2.94408V9.18371Z" fill="#3D7DF6"/>
<path d="M4.22656 3.92212H10.7615V4.74609H4.22656V3.92212Z" fill="#3D7DF6"/>
<path d="M4.22656 5.67993H10.7615V6.50391H4.22656V5.67993Z" fill="#3D7DF6"/>
<path d="M4.22656 7.43774H10.7615V8.26172H4.22656V7.43774Z" fill="#3D7DF6"/>
</svg>
