<svg width="20" height="20" viewBox="0 0 20 20" fill="none" xmlns="http://www.w3.org/2000/svg">
<path d="M14.7294 0.6875H5.27063C3.92688 0.6875 2.83313 1.78125 2.83313 3.125V16.875C2.83313 18.2188 3.92688 19.3125 5.27063 19.3125H14.73C16.0738 19.3125 17.1675 18.2188 17.1675 16.875V3.125C17.1669 1.78125 16.0738 0.6875 14.7294 0.6875ZM10.9613 18.1875H9.03938V15.9788H10.9613V18.1875ZM16.0419 16.875C16.0419 17.5987 15.4531 18.1875 14.7294 18.1875H12.0856V15.8044C12.0856 15.2806 11.6594 14.8544 11.1356 14.8544H8.86376C8.34 14.8544 7.91375 15.2806 7.91375 15.8044V18.1875H5.27C4.54625 18.1875 3.9575 17.5987 3.9575 16.875V3.125C3.9575 2.40125 4.54625 1.8125 5.27 1.8125H14.7294C15.4531 1.8125 16.0419 2.40125 16.0419 3.125V16.875Z" fill="#5A5A5A"/>
<path d="M8.24687 3.38184H6.71437C6.19062 3.38184 5.76437 3.80809 5.76437 4.33184V6.66996C5.76437 7.19371 6.19062 7.61996 6.71437 7.61996H8.24687C8.77062 7.61996 9.19687 7.19371 9.19687 6.66996V4.33184C9.19625 3.80809 8.77062 3.38184 8.24687 3.38184ZM8.07187 6.49496H6.88937V4.50684H8.07187V6.49496Z" fill="#5A5A5A"/>
<path d="M13.2856 3.38184H11.7531C11.2294 3.38184 10.8031 3.80809 10.8031 4.33184V6.66996C10.8031 7.19371 11.2294 7.61996 11.7531 7.61996H13.2856C13.8094 7.61996 14.2356 7.19371 14.2356 6.66996V4.33184C14.2356 3.80809 13.81 3.38184 13.2856 3.38184ZM13.1113 6.49496H11.9288V4.50684H13.1113V6.49496Z" fill="#5A5A5A"/>
<path d="M8.24687 8.69434H6.71437C6.19062 8.69434 5.76437 9.12059 5.76437 9.64434V11.9825C5.76437 12.5062 6.19062 12.9325 6.71437 12.9325H8.24687C8.77062 12.9325 9.19687 12.5062 9.19687 11.9825V9.64434C9.19625 9.12059 8.77062 8.69434 8.24687 8.69434ZM8.07187 11.8075H6.88937V9.81934H8.07187V11.8075Z" fill="#5A5A5A"/>
<path d="M13.2856 8.69434H11.7531C11.2294 8.69434 10.8031 9.12059 10.8031 9.64434V11.9825C10.8031 12.5062 11.2294 12.9325 11.7531 12.9325H13.2856C13.8094 12.9325 14.2356 12.5062 14.2356 11.9825V9.64434C14.2356 9.12059 13.81 8.69434 13.2856 8.69434ZM13.1113 11.8075H11.9288V9.81934H13.1113V11.8075Z" fill="#5A5A5A"/>
</svg>
