<svg width="170" height="170" viewBox="0 0 170 170" fill="none" xmlns="http://www.w3.org/2000/svg">
<g filter="url(#filter0_i_601_3558)">
<circle cx="85" cy="85" r="75" fill="#F81FAC" fill-opacity="0.15"/>
</g>
<circle cx="85" cy="85" r="80" stroke="#F81FAC" stroke-opacity="0.27" stroke-width="10"/>
<path fill-rule="evenodd" clip-rule="evenodd" d="M117.976 54.6059H100.561V51.1216C100.558 49.581 99.9449 48.1044 98.8552 47.0154C97.7655 45.9265 96.2884 45.3141 94.7478 45.3125H74.7194C73.1796 45.3142 71.7034 45.9269 70.6149 47.0159C69.5264 48.105 68.9144 49.5815 68.9134 51.1212V54.6056H51.4989C51.2116 54.6053 50.9271 54.6617 50.6616 54.7715C50.3961 54.8813 50.1549 55.0425 49.9518 55.2457C49.7487 55.4489 49.5876 55.6902 49.4779 55.9557C49.3683 56.2212 49.312 56.5058 49.3125 56.7931V67.3953C49.3119 67.6826 49.3681 67.9673 49.4777 68.2329C49.5874 68.4984 49.7484 68.7398 49.9515 68.943C50.1547 69.1462 50.3959 69.3074 50.6614 69.4172C50.927 69.5269 51.2116 69.5832 51.4989 69.5828H56.3375V118.594C56.3395 120.209 56.9821 121.758 58.1245 122.9C59.2669 124.043 60.8157 124.686 62.4313 124.688H107.036C108.652 124.686 110.201 124.043 111.343 122.9C112.485 121.758 113.128 120.209 113.13 118.594V69.5828H117.976C118.556 69.5825 119.112 69.3519 119.522 68.9417C119.932 68.5315 120.163 67.9753 120.163 67.3953V56.7934C120.162 56.2136 119.932 55.6575 119.522 55.2473C119.112 54.8372 118.556 54.6065 117.976 54.6059H117.976ZM73.2866 54.6059V51.1216C73.2909 50.7428 73.4432 50.3807 73.7109 50.1126C73.9787 49.8446 74.3406 49.6919 74.7194 49.6872H94.748C95.1272 49.6907 95.4898 49.843 95.7578 50.1113C96.0258 50.3796 96.1777 50.7424 96.1808 51.1216V54.6059H73.2866Z" fill="#F81FAC" fill-opacity="0.1"/>
<path fill-rule="evenodd" clip-rule="evenodd" d="M82.2383 114.086V76.5856C82.2383 75.9229 82.5016 75.2873 82.9702 74.8186C83.4388 74.35 84.0744 74.0867 84.7372 74.0867C85.3999 74.0867 86.0355 74.35 86.5042 74.8186C86.9728 75.2873 87.2361 75.9229 87.2361 76.5856V114.086C87.2361 114.748 86.9728 115.384 86.5042 115.853C86.0355 116.321 85.3999 116.585 84.7372 116.585C84.0744 116.585 83.4388 116.321 82.9702 115.853C82.5016 115.384 82.2383 114.748 82.2383 114.086ZM94.5856 110.007V80.6641C94.583 80.3342 94.6457 80.0071 94.7701 79.7017C94.8946 79.3962 95.0782 79.1184 95.3105 78.8842C95.5428 78.65 95.8192 78.4642 96.1237 78.3374C96.4282 78.2105 96.7548 78.1452 97.0846 78.1452C97.4145 78.1452 97.741 78.2105 98.0455 78.3374C98.35 78.4642 98.6264 78.65 98.8587 78.8842C99.091 79.1184 99.2747 79.3962 99.3991 79.7017C99.5235 80.0071 99.5862 80.3342 99.5836 80.6641V110.008C99.5862 110.338 99.5235 110.665 99.3991 110.97C99.2747 111.276 99.091 111.554 98.8587 111.788C98.6264 112.022 98.35 112.208 98.0455 112.335C97.741 112.461 97.4145 112.527 97.0846 112.527C96.7548 112.527 96.4282 112.461 96.1237 112.335C95.8192 112.208 95.5428 112.022 95.3105 111.788C95.0782 111.554 94.8946 111.276 94.7701 110.97C94.6457 110.665 94.583 110.338 94.5856 110.008V110.007ZM69.8834 110.007V80.6641C69.8808 80.3342 69.9435 80.0071 70.068 79.7017C70.1924 79.3962 70.376 79.1184 70.6083 78.8842C70.8407 78.65 71.117 78.4642 71.4215 78.3374C71.726 78.2105 72.0526 78.1452 72.3824 78.1452C72.7123 78.1452 73.0388 78.2105 73.3433 78.3374C73.6478 78.4642 73.9242 78.65 74.1565 78.8842C74.3888 79.1184 74.5725 79.3962 74.6969 79.7017C74.8213 80.0071 74.884 80.3342 74.8814 80.6641V110.008C74.884 110.338 74.8213 110.665 74.6969 110.97C74.5725 111.276 74.3888 111.554 74.1565 111.788C73.9242 112.022 73.6478 112.208 73.3433 112.335C73.0388 112.461 72.7123 112.527 72.3824 112.527C72.0526 112.527 71.726 112.461 71.4215 112.335C71.117 112.208 70.8407 112.022 70.6083 111.788C70.376 111.554 70.1924 111.276 70.068 110.97C69.9435 110.665 69.8808 110.338 69.8834 110.008V110.007ZM115.477 64.8952H53.9978V59.2934H115.477V64.8953L115.477 64.8952ZM108.444 118.594V69.8952H61.0303V118.594C61.0298 118.966 61.177 119.323 61.4396 119.587C61.7022 119.85 62.0588 119.999 62.4309 120H107.036C107.409 119.999 107.766 119.851 108.03 119.587C108.294 119.324 108.443 118.967 108.444 118.594ZM73.5988 51.1214C73.6032 50.8255 73.7227 50.543 73.9318 50.3337C74.141 50.1244 74.4234 50.0047 74.7192 50H94.7478C95.0442 50.0035 95.3274 50.1228 95.5368 50.3325C95.7462 50.5422 95.8652 50.8255 95.8683 51.1219V54.2937H73.5988V51.1219V51.1214ZM117.975 54.2933H100.873V51.1214C100.871 49.498 100.224 47.942 99.076 46.7944C97.9277 45.6469 96.3712 45.0016 94.7478 45H74.7192C73.0966 45.0018 71.541 45.6474 70.3939 46.795C69.2468 47.9427 68.6019 49.4986 68.6009 51.1212V54.2931H51.4989C51.1706 54.2928 50.8454 54.3573 50.542 54.4828C50.2386 54.6084 49.963 54.7925 49.7308 55.0247C49.4987 55.257 49.3147 55.5327 49.1893 55.8361C49.0639 56.1396 48.9996 56.4648 49 56.7931V67.3953C48.9994 67.7237 49.0637 68.0489 49.189 68.3524C49.3144 68.656 49.4984 68.9317 49.7306 69.164C49.9627 69.3962 50.2384 69.5804 50.5419 69.7059C50.8453 69.8314 51.1705 69.8957 51.4989 69.8953H56.025V118.594C56.027 120.292 56.7026 121.92 57.9036 123.121C59.1046 124.322 60.7328 124.998 62.4313 125H107.036C108.735 124.998 110.363 124.322 111.564 123.121C112.765 121.92 113.44 120.292 113.442 118.594V69.8952H117.976C118.639 69.8949 119.274 69.6313 119.743 69.1625C120.211 68.6937 120.475 68.058 120.475 67.3952V56.7934C120.474 56.1306 120.211 55.4951 119.742 55.0263C119.274 54.5576 118.638 54.2938 117.975 54.2933Z" fill="#F81FAC"/>
<defs>
<filter id="filter0_i_601_3558" x="0" y="0" width="170" height="170" filterUnits="userSpaceOnUse" color-interpolation-filters="sRGB">
<feFlood flood-opacity="0" result="BackgroundImageFix"/>
<feBlend mode="normal" in="SourceGraphic" in2="BackgroundImageFix" result="shape"/>
<feColorMatrix in="SourceAlpha" type="matrix" values="0 0 0 0 0 0 0 0 0 0 0 0 0 0 0 0 0 0 127 0" result="hardAlpha"/>
<feOffset/>
<feGaussianBlur stdDeviation="21"/>
<feComposite in2="hardAlpha" operator="arithmetic" k2="-1" k3="1"/>
<feColorMatrix type="matrix" values="0 0 0 0 0.972549 0 0 0 0 0.121569 0 0 0 0 0.67451 0 0 0 1 0"/>
<feBlend mode="normal" in2="shape" result="effect1_innerShadow_601_3558"/>
</filter>
</defs>
</svg>
