<svg width="15" height="15" viewBox="0 0 15 15" fill="none" xmlns="http://www.w3.org/2000/svg">
<g clip-path="url(#clip0_3024_3514)">
<path d="M9.56906 5.43452C9.37503 5.43452 9.21777 5.59177 9.21777 5.7858V12.4251C9.21777 12.619 9.37503 12.7764 9.56906 12.7764C9.76309 12.7764 9.92035 12.619 9.92035 12.4251V5.7858C9.92035 5.59177 9.76309 5.43452 9.56906 5.43452Z" fill="#5A5A5A"/>
<path d="M5.4238 5.43452C5.22977 5.43452 5.07251 5.59177 5.07251 5.7858V12.4251C5.07251 12.619 5.22977 12.7764 5.4238 12.7764C5.61783 12.7764 5.77508 12.619 5.77508 12.4251V5.7858C5.77508 5.59177 5.61783 5.43452 5.4238 5.43452Z" fill="#5A5A5A"/>
<path d="M2.40274 4.4656V13.1206C2.40274 13.6321 2.59032 14.1125 2.91801 14.4572C3.24418 14.8029 3.69811 14.9991 4.17317 15H10.8196C11.2948 14.9991 11.7488 14.8029 12.0748 14.4572C12.4025 14.1125 12.5901 13.6321 12.5901 13.1206V4.4656C13.2415 4.2927 13.6635 3.6634 13.5764 2.995C13.4891 2.32673 12.9198 1.82683 12.2458 1.82669H10.4472V1.38758C10.4493 1.01832 10.3033 0.663741 10.0419 0.402883C9.78045 0.142162 9.42532 -0.00301849 9.05606 3.79863e-07H5.93674C5.56748 -0.00301849 5.21235 0.142162 4.95094 0.402883C4.68954 0.663741 4.54353 1.01832 4.54559 1.38758V1.82669H2.74703C2.073 1.82683 1.50367 2.32673 1.41639 2.995C1.32926 3.6634 1.75135 4.2927 2.40274 4.4656ZM10.8196 14.2974H4.17317C3.57255 14.2974 3.10532 13.7814 3.10532 13.1206V4.49647H11.8875V13.1206C11.8875 13.7814 11.4202 14.2974 10.8196 14.2974ZM5.24817 1.38758C5.24583 1.20467 5.31774 1.02861 5.44755 0.899487C5.57722 0.770362 5.75369 0.699418 5.93674 0.702574H9.05606C9.23911 0.699418 9.41558 0.770362 9.54526 0.899487C9.67507 1.02848 9.74697 1.20467 9.74464 1.38758V1.82669H5.24817V1.38758ZM2.74703 2.52927H12.2458C12.595 2.52927 12.8781 2.81235 12.8781 3.16158C12.8781 3.51081 12.595 3.7939 12.2458 3.7939H2.74703C2.3978 3.7939 2.11471 3.51081 2.11471 3.16158C2.11471 2.81235 2.3978 2.52927 2.74703 2.52927Z" fill="#5A5A5A"/>
<path d="M7.49643 5.43452C7.3024 5.43452 7.14514 5.59177 7.14514 5.7858V12.4251C7.14514 12.619 7.3024 12.7764 7.49643 12.7764C7.69046 12.7764 7.84772 12.619 7.84772 12.4251V5.7858C7.84772 5.59177 7.69046 5.43452 7.49643 5.43452Z" fill="#5A5A5A"/>
</g>
<defs>
<clipPath id="clip0_3024_3514">
<rect width="15" height="15" fill="white"/>
</clipPath>
</defs>
</svg>
