<svg width="16" height="15" viewBox="0 0 16 15" fill="none" xmlns="http://www.w3.org/2000/svg">
<g clip-path="url(#clip0_3024_3114)">
<path d="M10.069 5.43452C9.87499 5.43452 9.71774 5.59178 9.71774 5.78581V12.4251C9.71774 12.619 9.87499 12.7764 10.069 12.7764C10.2631 12.7764 10.4203 12.619 10.4203 12.4251V5.78581C10.4203 5.59178 10.2631 5.43452 10.069 5.43452Z" fill="#F81FAC"/>
<path d="M5.92384 5.43452C5.72981 5.43452 5.57255 5.59178 5.57255 5.78581V12.4251C5.57255 12.619 5.72981 12.7764 5.92384 12.7764C6.11787 12.7764 6.27513 12.619 6.27513 12.4251V5.78581C6.27513 5.59178 6.11787 5.43452 5.92384 5.43452Z" fill="#F81FAC"/>
<path d="M2.90277 4.4656V13.1206C2.90277 13.6321 3.09035 14.1125 3.41804 14.4572C3.74421 14.8029 4.19814 14.9991 4.6732 15H11.3197C11.7949 14.9991 12.2488 14.8029 12.5748 14.4572C12.9025 14.1125 13.0901 13.6321 13.0901 13.1206V4.4656C13.7415 4.2927 14.1636 3.6634 14.0764 2.995C13.9892 2.32673 13.4198 1.82683 12.7458 1.82669H10.9472V1.38758C10.9493 1.01832 10.8033 0.663741 10.5419 0.402883C10.2805 0.142162 9.92535 -0.00301849 9.55609 3.79863e-07H6.43677C6.06751 -0.00301849 5.71238 0.142162 5.45097 0.402883C5.18957 0.663741 5.04356 1.01832 5.04562 1.38758V1.82669H3.24706C2.57303 1.82683 2.0037 2.32673 1.91642 2.995C1.82929 3.6634 2.25138 4.2927 2.90277 4.4656ZM11.3197 14.2974H4.6732C4.07259 14.2974 3.60535 13.7814 3.60535 13.1206V4.49647H12.3875V13.1206C12.3875 13.7814 11.9203 14.2974 11.3197 14.2974ZM5.7482 1.38758C5.74586 1.20467 5.81777 1.02861 5.94758 0.899487C6.07725 0.770362 6.25372 0.699418 6.43677 0.702574H9.55609C9.73914 0.699418 9.91561 0.770362 10.0453 0.899487C10.1751 1.02848 10.247 1.20467 10.2447 1.38758V1.82669H5.7482V1.38758ZM3.24706 2.52927H12.7458C13.095 2.52927 13.3781 2.81235 13.3781 3.16158C13.3781 3.51081 13.095 3.7939 12.7458 3.7939H3.24706C2.89783 3.7939 2.61474 3.51081 2.61474 3.16158C2.61474 2.81235 2.89783 2.52927 3.24706 2.52927Z" fill="#F81FAC"/>
<path d="M7.99643 5.43452C7.8024 5.43452 7.64515 5.59178 7.64515 5.78581V12.4251C7.64515 12.619 7.8024 12.7764 7.99643 12.7764C8.19046 12.7764 8.34772 12.619 8.34772 12.4251V5.78581C8.34772 5.59178 8.19046 5.43452 7.99643 5.43452Z" fill="#F81FAC"/>
</g>
<defs>
<clipPath id="clip0_3024_3114">
<rect width="15" height="15" fill="white" transform="translate(0.5)"/>
</clipPath>
</defs>
</svg>
