<svg width="15" height="15" viewBox="0 0 15 15" fill="none" xmlns="http://www.w3.org/2000/svg">
<path d="M12.7109 3.11332L9.88599 0.440801C9.58552 0.156533 9.19224 0 8.77862 0H3.40039C2.5119 0 1.78906 0.722842 1.78906 1.61133V13.3887C1.78906 14.2772 2.5119 15 3.40039 15H11.6035C12.492 15 13.2148 14.2772 13.2148 13.3887V4.28385C13.2148 3.84296 13.0312 3.41631 12.7109 3.11332ZM11.8573 3.51562H9.66992C9.58915 3.51562 9.52344 3.44991 9.52344 3.36914V1.3077L11.8573 3.51562ZM11.6035 14.1211H3.40039C2.99653 14.1211 2.66797 13.7925 2.66797 13.3887V1.61133C2.66797 1.20747 2.99653 0.878906 3.40039 0.878906H8.64453V3.36914C8.64453 3.93454 9.10452 4.39453 9.66992 4.39453H12.3359V13.3887C12.3359 13.7925 12.0074 14.1211 11.6035 14.1211Z" fill="#3D7DF6"/>
<path d="M10.6348 5.85938H4.18945C3.94676 5.85938 3.75 6.05613 3.75 6.29883C3.75 6.54152 3.94676 6.73828 4.18945 6.73828H10.6348C10.8775 6.73828 11.0742 6.54152 11.0742 6.29883C11.0742 6.05613 10.8775 5.85938 10.6348 5.85938Z" fill="#3D7DF6"/>
<path d="M10.6348 8.20312H4.18945C3.94676 8.20312 3.75 8.39988 3.75 8.64258C3.75 8.88527 3.94676 9.08203 4.18945 9.08203H10.6348C10.8775 9.08203 11.0742 8.88527 11.0742 8.64258C11.0742 8.39988 10.8775 8.20312 10.6348 8.20312Z" fill="#3D7DF6"/>
<path d="M6.31992 10.5469H4.18945C3.94676 10.5469 3.75 10.7436 3.75 10.9863C3.75 11.229 3.94676 11.4258 4.18945 11.4258H6.31992C6.56262 11.4258 6.75938 11.229 6.75938 10.9863C6.75938 10.7436 6.56262 10.5469 6.31992 10.5469Z" fill="#3D7DF6"/>
</svg>
