<svg width="20" height="20" viewBox="0 0 20 20" fill="none" xmlns="http://www.w3.org/2000/svg">
<path d="M5.1213 0H11.8131L17.4777 5.90996V17.3982C17.4777 18.8353 16.313 20 14.876 20H5.1213C3.68425 20 2.51953 18.8353 2.51953 17.3982V2.60177C2.51953 1.16474 3.68425 0 5.1213 0Z" fill="#0263D1"/>
<path opacity="0.302" fill-rule="evenodd" clip-rule="evenodd" d="M11.8047 0V5.86141H17.4774L11.8047 0Z" fill="white"/>
<path d="M4.93359 14.2707V10.9599H6.10642C6.34098 10.9599 6.55939 10.9949 6.7616 11.0596C6.96381 11.127 7.14714 11.2241 7.31162 11.3535C7.47608 11.4829 7.60551 11.6555 7.69987 11.8712C7.79423 12.0869 7.84277 12.3349 7.84277 12.6153C7.84277 12.8957 7.79423 13.1438 7.69987 13.3594C7.60551 13.5751 7.47608 13.7477 7.31162 13.8771C7.14717 14.0065 6.96381 14.1036 6.7616 14.171C6.55939 14.2357 6.341 14.2707 6.10642 14.2707H4.93359ZM5.76131 13.5509H6.00666C6.13877 13.5509 6.26279 13.5347 6.37332 13.505C6.48656 13.4727 6.589 13.4215 6.68606 13.354C6.78313 13.2866 6.85861 13.1896 6.91253 13.0629C6.96916 12.9388 6.9961 12.7879 6.9961 12.6153C6.9961 12.4428 6.96914 12.2918 6.91253 12.165C6.85861 12.041 6.78313 11.944 6.68606 11.8766C6.589 11.8065 6.48656 11.7579 6.37332 11.7256C6.26279 11.6959 6.13877 11.6797 6.00666 11.6797H5.76131V13.5509ZM9.85138 14.3085C9.3526 14.3085 8.94009 14.1467 8.61386 13.8259C8.28762 13.505 8.12584 13.1006 8.12584 12.6153C8.12584 12.13 8.28762 11.7256 8.61386 11.4048C8.94009 11.0839 9.3526 10.9222 9.85138 10.9222C10.3421 10.9222 10.7492 11.0839 11.0754 11.4048C11.399 11.7256 11.5607 12.13 11.5607 12.6153C11.5607 13.1006 11.399 13.5051 11.0754 13.8259C10.7492 14.1467 10.3421 14.3085 9.85138 14.3085ZM9.21508 13.3136C9.37954 13.497 9.58983 13.5886 9.84597 13.5886C10.1021 13.5886 10.3097 13.497 10.4742 13.3136C10.6386 13.1276 10.7195 12.8957 10.7195 12.6153C10.7195 12.3349 10.6386 12.103 10.4742 11.917C10.3097 11.7337 10.1021 11.642 9.84597 11.642C9.58983 11.642 9.37954 11.7337 9.21508 11.917C9.05062 12.103 8.96703 12.3349 8.96703 12.6153C8.96703 12.8957 9.05062 13.1276 9.21508 13.3136ZM13.5289 14.3085C13.0463 14.3085 12.6446 14.1575 12.3264 13.8609C12.0056 13.5617 11.8465 13.1465 11.8465 12.6153C11.8465 12.0869 12.0083 11.6717 12.3318 11.3724C12.6581 11.0731 13.0544 10.9221 13.5289 10.9221C13.9576 10.9221 14.3081 11.0273 14.5858 11.2403C14.8608 11.4506 15.0199 11.731 15.0603 12.0815L14.2245 12.2513C14.1895 12.068 14.1059 11.9197 13.9765 11.8091C13.8471 11.6986 13.6961 11.642 13.5235 11.642C13.2863 11.642 13.0894 11.7256 12.9304 11.8954C12.7713 12.068 12.6904 12.3052 12.6904 12.6153C12.6904 12.9253 12.7713 13.1626 12.9277 13.3325C13.0867 13.505 13.2836 13.5886 13.5235 13.5886C13.696 13.5886 13.8444 13.5401 13.9657 13.443C14.087 13.346 14.1625 13.2166 14.1949 13.0548L15.0495 13.2489C14.9713 13.5832 14.7988 13.8421 14.5292 14.0281C14.2623 14.2141 13.9279 14.3085 13.5289 14.3085Z" fill="white"/>
</svg>
