<svg width="25" height="25" viewBox="0 0 25 25" fill="none" xmlns="http://www.w3.org/2000/svg">
<g clip-path="url(#clip0_595_2929)">
<path d="M23.0042 1.7897H19.4521V0.585938C19.4521 0.430537 19.3903 0.281502 19.2804 0.171617C19.1705 0.0617325 19.0215 0 18.8661 0C18.7107 0 18.5617 0.0617325 18.4518 0.171617C18.3419 0.281502 18.2802 0.430537 18.2802 0.585938V1.7897H13.0859V0.585938C13.0859 0.430537 13.0242 0.281502 12.9143 0.171617C12.8044 0.0617325 12.6554 0 12.5 0C12.3446 0 12.1956 0.0617325 12.0857 0.171617C11.9758 0.281502 11.9141 0.430537 11.9141 0.585938V1.7897H6.71982V0.585938C6.71982 0.430537 6.65809 0.281502 6.54821 0.171617C6.43832 0.0617325 6.28929 0 6.13389 0C5.97849 0 5.82945 0.0617325 5.71957 0.171617C5.60968 0.281502 5.54795 0.430537 5.54795 0.585938V1.7897H1.99575C1.46663 1.7903 0.959358 2.00077 0.585213 2.37491C0.211069 2.74905 0.00060739 3.25633 0 3.78545L0 23.0042C0.000594469 23.5333 0.21105 24.0406 0.585196 24.4148C0.959342 24.7889 1.46662 24.9994 1.99575 25H23.0042C23.5334 24.9994 24.0406 24.7889 24.4148 24.4148C24.7889 24.0406 24.9994 23.5334 25 23.0042V3.78545C24.9994 3.25633 24.7889 2.74905 24.4148 2.37491C24.0406 2.00077 23.5334 1.7903 23.0042 1.7897ZM1.99575 2.96157H5.54795V4.16533C5.54795 4.32073 5.60968 4.46977 5.71957 4.57965C5.82945 4.68954 5.97849 4.75127 6.13389 4.75127C6.28929 4.75127 6.43832 4.68954 6.54821 4.57965C6.65809 4.46977 6.71982 4.32073 6.71982 4.16533V2.96157H11.9141V4.16533C11.9141 4.32073 11.9758 4.46977 12.0857 4.57965C12.1956 4.68954 12.3446 4.75127 12.5 4.75127C12.6554 4.75127 12.8044 4.68954 12.9143 4.57965C13.0242 4.46977 13.0859 4.32073 13.0859 4.16533V2.96157H18.2802V4.16533C18.2802 4.32073 18.3419 4.46977 18.4518 4.57965C18.5617 4.68954 18.7107 4.75127 18.8661 4.75127C19.0215 4.75127 19.1705 4.68954 19.2804 4.57965C19.3903 4.46977 19.4521 4.32073 19.4521 4.16533V2.96157H23.0042C23.2227 2.96183 23.4321 3.04871 23.5865 3.20317C23.741 3.35762 23.8279 3.56702 23.8281 3.78545V7.75273H1.17188V3.78545C1.17213 3.56702 1.25902 3.35762 1.41347 3.20317C1.56792 3.04871 1.77733 2.96183 1.99575 2.96157ZM23.0042 23.8281H1.99575C1.77732 23.8279 1.56791 23.741 1.41345 23.5865C1.259 23.4321 1.17212 23.2227 1.17188 23.0042V8.92461H23.8281V23.0042C23.8279 23.2227 23.741 23.4321 23.5865 23.5865C23.4321 23.741 23.2227 23.8279 23.0042 23.8281ZM18.1337 15.9619C18.1881 16.0163 18.2313 16.0809 18.2607 16.152C18.2902 16.2231 18.3053 16.2993 18.3053 16.3762C18.3053 16.4532 18.2902 16.5294 18.2607 16.6005C18.2313 16.6716 18.1881 16.7362 18.1337 16.7906L13.8349 21.0895C13.7805 21.1439 13.7159 21.187 13.6448 21.2165C13.5737 21.2459 13.4975 21.2611 13.4205 21.2611C13.3436 21.2611 13.2674 21.2459 13.1963 21.2165C13.1252 21.187 13.0606 21.1439 13.0062 21.0895C12.9518 21.035 12.9086 20.9704 12.8792 20.8994C12.8497 20.8283 12.8346 20.7521 12.8346 20.6751C12.8346 20.5982 12.8497 20.522 12.8792 20.4509C12.9086 20.3798 12.9518 20.3152 13.0062 20.2608L16.2962 16.9708L6.81104 16.957C6.65564 16.9569 6.50664 16.8951 6.39684 16.7851C6.28703 16.6752 6.2254 16.5261 6.22551 16.3707C6.22562 16.2153 6.28746 16.0663 6.39742 15.9565C6.50739 15.8467 6.65647 15.785 6.81187 15.7852H6.81274L16.3134 15.799L13.0062 12.4918C12.8963 12.382 12.8346 12.2329 12.8346 12.0775C12.8346 11.9221 12.8963 11.7731 13.0062 11.6632C13.1161 11.5533 13.2651 11.4916 13.4205 11.4916C13.5759 11.4916 13.725 11.5533 13.8349 11.6632L18.1337 15.9619Z" fill="#14BBD8"/>
</g>
<defs>
<clipPath id="clip0_595_2929">
<rect width="25" height="25" fill="white"/>
</clipPath>
</defs>
</svg>
