<svg width="16" height="15" viewBox="0 0 16 15" fill="none" xmlns="http://www.w3.org/2000/svg">
<path d="M13.52 1.97991C13.3684 1.82761 13.1881 1.70676 12.9897 1.6243C12.7912 1.54185 12.5784 1.4994 12.3635 1.4994C12.1486 1.4994 11.9358 1.54185 11.7373 1.6243C11.5389 1.70676 11.3586 1.82761 11.207 1.97991L5.336 7.86591C5.28898 7.91384 5.2594 7.97617 5.252 8.04291L5 10.1639C4.99465 10.2086 4.99943 10.2539 5.01397 10.2965C5.02851 10.3391 5.05244 10.3778 5.084 10.4099C5.11214 10.4386 5.14576 10.4614 5.18286 10.4768C5.21997 10.4923 5.2598 10.5001 5.3 10.4999H5.333L7.472 10.2779C7.54018 10.2703 7.60371 10.2396 7.652 10.1909L13.52 4.30191C13.8267 3.99333 13.9988 3.57595 13.9988 3.14091C13.9988 2.70586 13.8267 2.28848 13.52 1.97991ZM7.304 9.68691L5.642 9.86391L5.834 8.21691L10.472 3.56691L11.939 5.03691L7.304 9.68691ZM12.362 4.61391L10.895 3.14091L11.63 2.39991C11.8274 2.20963 12.0908 2.10331 12.365 2.10331C12.6392 2.10331 12.9026 2.20963 13.1 2.39991C13.2946 2.59504 13.4038 2.85935 13.4038 3.13491C13.4038 3.41046 13.2946 3.67477 13.1 3.86991L12.362 4.61391Z" fill="#01DF85"/>
<path d="M12.2 11.3999C12.2 11.7977 12.042 12.1793 11.7607 12.4606C11.4794 12.7419 11.0978 12.8999 10.7 12.8999H4.1C3.70218 12.8999 3.32064 12.7419 3.03934 12.4606C2.75804 12.1793 2.6 11.7977 2.6 11.3999V4.79991C2.6 4.40208 2.75804 4.02055 3.03934 3.73925C3.32064 3.45794 3.70218 3.29991 4.1 3.29991H8.6V2.69991H4.1C3.54305 2.69991 3.0089 2.92115 2.61508 3.31498C2.22125 3.70881 2 4.24295 2 4.79991V11.3999C2 11.9569 2.22125 12.491 2.61508 12.8848C3.0089 13.2787 3.54305 13.4999 4.1 13.4999H10.7C11.257 13.4999 11.7911 13.2787 12.1849 12.8848C12.5788 12.491 12.8 11.9569 12.8 11.3999V6.89991H12.2V11.3999Z" fill="#01DF85"/>
</svg>
