<svg width="18" height="18" viewBox="0 0 18 18" fill="none" xmlns="http://www.w3.org/2000/svg">
<path d="M3.12322 12.2617C2.97922 12.2617 2.8355 12.2068 2.72553 12.0968C2.50588 11.8772 2.50588 11.5211 2.72553 11.3015L11.5157 2.51128C11.7351 2.29163 12.0914 2.29163 12.3111 2.51128C12.5308 2.73094 12.5308 3.087 12.3111 3.30666L3.52091 12.0968C3.41122 12.2065 3.26722 12.2617 3.12322 12.2617Z" fill="#5A5A5A"/>
<path d="M2.25483 16.3125C2.21574 16.3125 2.17608 16.3083 2.13643 16.2998C1.83268 16.2346 1.63918 15.9356 1.70443 15.6319L2.57349 11.581C2.63874 11.2773 2.93912 11.0843 3.24146 11.149C3.54521 11.2143 3.73871 11.5132 3.67346 11.817L2.8044 15.8678C2.74787 16.1319 2.51443 16.3125 2.25483 16.3125Z" fill="#5A5A5A"/>
<path d="M6.30511 15.4434C6.16111 15.4434 6.01739 15.3886 5.90742 15.2786C5.68776 15.059 5.68776 14.7029 5.90742 14.4832L14.6976 5.69334C14.917 5.47369 15.2733 5.47369 15.493 5.69334C15.7126 5.913 15.7126 6.26906 15.493 6.48872L6.70307 15.2786C6.59311 15.3886 6.44911 15.4434 6.30511 15.4434Z" fill="#5A5A5A"/>
<path d="M2.25366 16.3125C1.99407 16.3125 1.76091 16.1319 1.7041 15.8678C1.63913 15.5641 1.83235 15.2651 2.1361 15.1999L6.18694 14.3308C6.49098 14.2664 6.78994 14.4593 6.85491 14.7628C6.91988 15.0666 6.72666 15.3655 6.42291 15.4308L2.37207 16.2998C2.33241 16.3086 2.29276 16.3125 2.25366 16.3125Z" fill="#5A5A5A"/>
<path d="M13.5042 8.24428C13.3602 8.24428 13.2162 8.18944 13.1065 8.07947L9.92475 4.89769C9.7051 4.67803 9.7051 4.32197 9.92475 4.10231C10.1441 3.88266 10.5008 3.88266 10.7201 4.10231L13.9019 7.28409C14.1216 7.50375 14.1216 7.85981 13.9019 8.07947C13.7922 8.18944 13.6482 8.24428 13.5042 8.24428Z" fill="#5A5A5A"/>
<path d="M15.0952 6.65353C14.9512 6.65353 14.8072 6.59869 14.6973 6.48872C14.4776 6.26906 14.4776 5.913 14.6973 5.69306C15.0103 5.38003 15.1827 4.95619 15.1827 4.5C15.1827 4.04381 15.0103 3.61997 14.6973 3.30694C14.384 2.99362 13.9601 2.82122 13.5039 2.82122C13.0477 2.82122 12.6239 2.99362 12.3109 3.30694C12.0915 3.52659 11.7354 3.52687 11.5152 3.30694C11.2955 3.08728 11.2955 2.73122 11.5152 2.51128C12.0406 1.98562 12.7468 1.69622 13.5039 1.69622C14.2608 1.69622 14.9673 1.98562 15.4926 2.51128C16.0183 3.03666 16.3077 3.74287 16.3077 4.5C16.3077 5.25712 16.0183 5.96334 15.4926 6.48872C15.3832 6.59841 15.2392 6.65353 15.0952 6.65353Z" fill="#5A5A5A"/>
</svg>
