<svg width="60" height="61" viewBox="0 0 60 61" fill="none" xmlns="http://www.w3.org/2000/svg">
<path d="M50.4872 47.4535H9.51246C8.18061 47.452 6.90375 46.9222 5.96203 45.9804C5.02032 45.0386 4.49066 43.7617 4.48926 42.4299V17.1243C4.49066 15.7924 5.02032 14.5155 5.96203 13.5737C6.90375 12.6319 8.18061 12.1021 9.51246 12.1006H50.4872C51.819 12.1021 53.0959 12.6319 54.0376 13.5737C54.9793 14.5155 55.509 15.7924 55.5104 17.1243V42.4299C55.509 43.7617 54.9793 45.0386 54.0376 45.9804C53.0959 46.9222 51.819 47.452 50.4872 47.4535ZM9.51246 14.0206C8.68963 14.0215 7.90076 14.3488 7.31898 14.9306C6.73719 15.5125 6.41002 16.3014 6.40926 17.1243V42.4299C6.41002 43.2527 6.73719 44.0416 7.31898 44.6235C7.90076 45.2054 8.68963 45.5327 9.51246 45.5335H50.4872C51.31 45.5327 52.0989 45.2054 52.6807 44.6235C53.2624 44.0416 53.5896 43.2527 53.5904 42.4299V17.1243C53.5896 16.3014 53.2624 15.5125 52.6807 14.9306C52.0989 14.3488 51.31 14.0215 50.4872 14.0206H9.51246Z" fill="white"/>
<path d="M30 35.4263C29.766 35.4264 29.54 35.3411 29.3645 35.1863L6.22852 14.7632L7.49908 13.3232L30 33.1876L52.502 13.3256L53.7725 14.7656L30.6365 35.1887C30.4605 35.3431 30.2341 35.4276 30 35.4263Z" fill="white"/>
<path d="M5.70605 44.4385L21.2486 26.7294L22.6924 27.9966L7.14989 45.7057L5.70605 44.4385Z" fill="white"/>
<path d="M37.3564 27.9785L38.8003 26.7113L54.3431 44.4207L52.8993 45.6879L37.3564 27.9785Z" fill="white"/>
</svg>
