<svg width="16" height="16" viewBox="0 0 16 16" fill="none" xmlns="http://www.w3.org/2000/svg">
<g clip-path="url(#clip0_595_2560)">
<path d="M15.5843 8.15973C12.4163 11.9464 6.84299 7.11173 3.77899 11.2637L3.60299 10.6397V10.6371C2.99232 8.45306 2.38166 6.26817 1.77099 4.08239C1.71232 3.87439 1.65632 3.66639 1.59766 3.45839C4.66166 -0.693608 10.2377 4.14106 13.403 0.354392C13.5577 0.167726 13.7043 0.247726 13.6723 0.519726C13.6563 0.647726 13.6377 0.775726 13.6217 0.901059C13.4377 2.23439 13.2137 3.41839 12.9577 4.49039C12.8857 4.79173 12.8137 5.08239 12.7363 5.36773C12.7315 5.38792 12.7279 5.40841 12.7257 5.42906C12.7228 5.5038 12.7531 5.576 12.8083 5.62639C13.6025 6.34692 14.482 6.96754 15.427 7.47439C15.5017 7.51173 15.5737 7.54639 15.6457 7.57839C15.7683 7.63173 15.739 7.97306 15.5843 8.15973Z" fill="#01DF85" fill-opacity="0.2"/>
<path d="M15.586 8.15973C15.4126 8.36779 15.2207 8.55969 15.0127 8.73306C12.1247 11.1304 7.73266 8.14106 4.77266 10.2691H4.77C4.39134 10.5481 4.05769 10.8836 3.78066 11.2637C3.722 11.0557 3.26066 11.0317 3.202 10.8237V10.8211C3.19666 10.8024 3.19133 10.7864 3.186 10.7677C2.58066 8.60239 1.97533 6.43528 1.37 4.26639C1.31133 4.05839 1.658 3.66639 1.59933 3.45839C2.95666 1.62106 4.80466 1.54373 6.71666 1.69839C8.81533 1.87173 10.994 2.32506 12.6847 1.04239C12.9509 0.842182 13.1926 0.611251 13.4047 0.354392C13.5593 0.167726 13.706 0.247726 13.674 0.519726C13.658 0.647726 13.6393 0.775726 13.6233 0.901059C13.4393 2.23439 13.2153 3.41839 12.9593 4.49039C12.8873 4.79173 12.8153 5.08239 12.738 5.36773C12.7331 5.38792 12.7296 5.40841 12.7273 5.42906C12.7245 5.5038 12.7547 5.576 12.81 5.62639C13.6042 6.34692 14.4836 6.96754 15.4287 7.47439C15.5033 7.51173 15.5753 7.54639 15.6473 7.57839C15.77 7.63173 15.7407 7.97306 15.586 8.15973Z" fill="#01DF85" fill-opacity="0.2"/>
<path d="M15.0447 8.6958C15.034 8.70914 15.0233 8.7198 15.0127 8.73314C12.1247 11.1305 7.73266 8.14114 4.77266 10.2691H4.77C4.218 10.3545 4.23666 11.2078 3.73533 11.4665C3.13 9.30114 1.97533 6.43447 1.37 4.26647C1.31133 4.05847 1.658 3.66647 1.59933 3.45847C2.95666 1.62114 4.80466 1.5438 6.71666 1.69847C8.81533 1.8718 11.378 2.08247 13.0687 0.799805C12.8793 2.05314 12.5167 3.4318 12.2687 4.47447C12.186 4.82114 12.1033 5.15714 12.0127 5.48514C12.0078 5.50803 12.0042 5.53118 12.002 5.55447C11.9976 5.64019 12.0318 5.72338 12.0953 5.78114C13.1593 6.70647 13.9273 7.44247 14.8633 7.90914C14.9487 7.9518 15.0313 7.9918 15.114 8.02647C15.2553 8.0878 15.2207 8.48247 15.0447 8.6958Z" fill="#01DF85" fill-opacity="0.2"/>
<path d="M0.737051 2.91914L0.773851 2.90886C0.938242 2.86294 1.11414 2.8842 1.26286 2.96797C1.41157 3.05174 1.52091 3.19116 1.56683 3.35555L4.82084 15.0047C4.89734 15.2785 4.73735 15.5626 4.46348 15.6391L4.17874 15.7186C3.90487 15.7951 3.62084 15.6351 3.54434 15.3612L0.29033 3.71212C0.194706 3.3698 0.394724 3.01476 0.737051 2.91914Z" fill="#01DF85" fill-opacity="0.2"/>
<path d="M4.17966 15.7201L4.4644 15.6406C4.48131 15.635 4.49792 15.6285 4.51414 15.6211C4.43254 15.5545 4.37353 15.4642 4.34515 15.3628L1.08952 3.71243C1.01745 3.45263 1.11536 3.17548 1.33464 3.01861C1.17508 2.89583 0.967064 2.85524 0.773044 2.90901L0.73627 2.91928C0.393891 3.01495 0.19388 3.37004 0.289524 3.71243L3.54515 15.3628C3.62168 15.6367 3.90576 15.7967 4.17966 15.7201Z" fill="white"/>
<path d="M0.548756 3.64062L1.48182 6.97929L3.80449 15.2908L3.29089 15.4345L0.968223 7.12276L0.0351562 3.78409L0.548756 3.64062Z" fill="white"/>
<path d="M0.65081 4.99655C0.792356 4.95654 0.875034 4.80974 0.835876 4.66796L0.54881 3.64062L0.0351562 3.78417L0.322223 4.81148C0.362218 4.95303 0.509024 5.03572 0.65081 4.99655Z" fill="#01DF85"/>
<path d="M3.29094 15.4347L3.80459 15.2912L1.41022 6.72273C1.38458 6.63098 1.31193 6.55987 1.21965 6.5362C1.12736 6.51253 1.02946 6.53989 0.962821 6.60797C0.896179 6.67606 0.870923 6.77452 0.896565 6.86628L3.29094 15.4347Z" fill="#01DF85"/>
<path d="M1.11972 5.69517C1.09975 5.62748 1.055 5.5698 0.994389 5.53365L0.947269 5.51354C0.930218 5.5078 0.912481 5.50435 0.894522 5.50327C0.877847 5.49995 0.860768 5.49915 0.843855 5.5009C0.82609 5.50274 0.808474 5.50581 0.791135 5.5101C0.723413 5.53002 0.665713 5.57478 0.629589 5.63543C0.561235 5.76476 0.606008 5.92497 0.731509 6.00013C0.762532 6.01645 0.796379 6.02671 0.831242 6.03037C0.86582 6.03492 0.900957 6.03264 0.934655 6.02365C1.00317 6.00525 1.0614 5.96005 1.09622 5.89823C1.13103 5.83642 1.13951 5.7633 1.11972 5.69517Z" fill="#01DF85"/>
<path d="M4.04081 16.0061C3.69064 16.0052 3.3837 15.7717 3.28924 15.4345C3.26131 15.3421 3.28557 15.2417 3.35266 15.1722C3.41975 15.1027 3.51918 15.0749 3.61258 15.0996C3.70598 15.1243 3.77874 15.1975 3.80279 15.291C3.83976 15.4229 3.97654 15.5 4.10852 15.4633L4.39367 15.3836C4.52555 15.3466 4.60255 15.2097 4.5658 15.0778L1.31033 3.42734C1.25382 3.22705 1.04604 3.11012 0.845506 3.16576L0.809053 3.17592C0.608651 3.23224 0.491512 3.44 0.547053 3.64062C0.575229 3.73316 0.551077 3.83371 0.483942 3.90335C0.416806 3.973 0.317216 4.00083 0.223701 3.97607C0.130185 3.95132 0.0574109 3.87786 0.0335326 3.78411C-0.10105 3.29998 0.181526 2.79825 0.665293 2.66238L0.702013 2.65208C1.18611 2.51777 1.68768 2.80017 1.82388 3.28374L5.07935 14.9342C5.13519 15.1338 5.10943 15.3475 5.00775 15.5281C4.90606 15.7087 4.73678 15.8415 4.53716 15.8973L4.25201 15.977C4.18326 15.9962 4.11221 16.006 4.04081 16.0061Z" fill="#01DF85"/>
<path d="M3.77607 11.5317C3.75991 11.5317 3.74379 11.5303 3.72791 11.5273C3.62765 11.5089 3.54666 11.435 3.5193 11.3368L1.33796 3.53148C1.31587 3.45238 1.33143 3.36752 1.38015 3.3014C3.0338 1.05948 5.36583 1.29215 7.6213 1.51767C9.73772 1.72978 11.7367 1.929 13.196 0.182896C13.3035 0.0138764 13.5149 -0.0563016 13.7021 0.0149489C13.7685 0.0437222 13.9823 0.167535 13.9347 0.551642C13.7314 2.19999 13.4163 3.83262 12.9917 5.43826C13.8183 6.19663 14.7475 6.83504 15.7519 7.33474C15.8647 7.38788 15.9456 7.49158 15.9696 7.61402C16.0151 7.86754 15.9487 8.12836 15.7875 8.32927L15.7868 8.33031C14.1459 10.2927 11.9121 10.0699 9.74943 9.85375C7.54578 9.6337 5.4641 9.42522 3.99058 11.4234C3.94034 11.4915 3.86072 11.5317 3.77607 11.5317ZM1.88727 3.51519L3.89447 10.6979C5.51972 8.895 7.69498 9.1122 9.80252 9.323C11.9181 9.5346 13.9174 9.7342 15.377 7.98863C15.4207 7.92882 15.4468 7.85803 15.4525 7.7842C14.4284 7.2628 13.4797 6.60514 12.6321 5.82914C12.4837 5.69673 12.4235 5.49157 12.4766 5.29996C12.8692 3.81808 13.166 2.31244 13.3651 0.792416C11.7495 2.46599 9.6258 2.25348 7.56852 2.04842C5.40186 1.83196 3.3558 1.6273 1.88727 3.51519Z" fill="#01DF85"/>
</g>
<defs>
<clipPath id="clip0_595_2560">
<rect width="16" height="16" fill="white"/>
</clipPath>
</defs>
</svg>
