<svg width="16" height="16" viewBox="0 0 16 16" fill="none" xmlns="http://www.w3.org/2000/svg">
<g clip-path="url(#clip0_595_3071)">
<path d="M15.5843 8.15973C12.4163 11.9464 6.84299 7.11173 3.77899 11.2637L3.60299 10.6397V10.6371C2.99232 8.45306 2.38166 6.26817 1.77099 4.08239C1.71232 3.87439 1.65632 3.66639 1.59766 3.45839C4.66166 -0.693608 10.2377 4.14106 13.403 0.354392C13.5577 0.167726 13.7043 0.247726 13.6723 0.519726C13.6563 0.647726 13.6377 0.775726 13.6217 0.901059C13.4377 2.23439 13.2137 3.41839 12.9577 4.49039C12.8857 4.79173 12.8137 5.08239 12.7363 5.36773C12.7315 5.38792 12.7279 5.40841 12.7257 5.42906C12.7228 5.5038 12.7531 5.576 12.8083 5.62639C13.6025 6.34692 14.482 6.96754 15.427 7.47439C15.5017 7.51173 15.5737 7.54639 15.6457 7.57839C15.7683 7.63173 15.739 7.97306 15.5843 8.15973Z" fill="#E64C3C" fill-opacity="0.2"/>
<path d="M15.584 8.15973C15.4107 8.36779 15.2188 8.55969 15.0107 8.73306C12.1227 11.1304 7.73071 8.14106 4.77071 10.2691H4.76804C4.38938 10.5481 4.05573 10.8836 3.77871 11.2637C3.72004 11.0557 3.25871 11.0317 3.20004 10.8237V10.8211C3.19471 10.8024 3.18938 10.7864 3.18404 10.7677C2.57871 8.60239 1.97338 6.43528 1.36804 4.26639C1.30938 4.05839 1.65604 3.66639 1.59738 3.45839C2.95471 1.62106 4.80271 1.54373 6.71471 1.69839C8.81338 1.87173 10.992 2.32506 12.6827 1.04239C12.9489 0.842182 13.1906 0.611251 13.4027 0.354392C13.5574 0.167726 13.704 0.247726 13.672 0.519726C13.656 0.647726 13.6374 0.775726 13.6214 0.901059C13.4374 2.23439 13.2134 3.41839 12.9574 4.49039C12.8854 4.79173 12.8134 5.08239 12.736 5.36773C12.7312 5.38792 12.7276 5.40841 12.7254 5.42906C12.7225 5.5038 12.7528 5.576 12.808 5.62639C13.6023 6.34692 14.4817 6.96754 15.4267 7.47439C15.5014 7.51173 15.5734 7.54639 15.6454 7.57839C15.768 7.63173 15.7387 7.97306 15.584 8.15973Z" fill="#FA4443" fill-opacity="0.2"/>
<path d="M15.0427 8.6958C15.032 8.70914 15.0214 8.7198 15.0107 8.73314C12.1227 11.1305 7.73071 8.14114 4.77071 10.2691H4.76804C4.21604 10.3545 4.23471 11.2078 3.73338 11.4665C3.12804 9.30114 1.97338 6.43447 1.36804 4.26647C1.30938 4.05847 1.65604 3.66647 1.59738 3.45847C2.95471 1.62114 4.80271 1.5438 6.71471 1.69847C8.81338 1.8718 11.376 2.08247 13.0667 0.799805C12.8774 2.05314 12.5147 3.4318 12.2667 4.47447C12.184 4.82114 12.1014 5.15714 12.0107 5.48514C12.0059 5.50803 12.0023 5.53118 12 5.55447C11.9956 5.64019 12.0299 5.72338 12.0934 5.78114C13.1574 6.70647 13.9254 7.44247 14.8614 7.90914C14.9467 7.9518 15.0294 7.9918 15.112 8.02647C15.2534 8.0878 15.2187 8.48247 15.0427 8.6958Z" fill="#FA4443" fill-opacity="0.2"/>
<path d="M0.737051 2.91914L0.773851 2.90886C0.938242 2.86294 1.11414 2.8842 1.26286 2.96797C1.41157 3.05174 1.52091 3.19116 1.56683 3.35555L4.82084 15.0047C4.89734 15.2785 4.73735 15.5626 4.46348 15.6391L4.17874 15.7186C3.90487 15.7951 3.62084 15.6351 3.54434 15.3612L0.29033 3.71212C0.194706 3.3698 0.394724 3.01476 0.737051 2.91914Z" fill="#FA4443" fill-opacity="0.2"/>
<path d="M4.17966 15.7201L4.4644 15.6406C4.48131 15.635 4.49792 15.6285 4.51414 15.6211C4.43254 15.5545 4.37353 15.4642 4.34515 15.3628L1.08952 3.71243C1.01745 3.45263 1.11536 3.17548 1.33464 3.01861C1.17508 2.89583 0.967064 2.85524 0.773044 2.90901L0.73627 2.91928C0.393891 3.01495 0.19388 3.37004 0.289524 3.71243L3.54515 15.3628C3.62168 15.6367 3.90576 15.7967 4.17966 15.7201Z" fill="white"/>
<path d="M0.546803 3.64062L1.47987 6.97929L3.80254 15.2908L3.28894 15.4345L0.96627 7.12276L0.0332031 3.78409L0.546803 3.64062Z" fill="white"/>
<path d="M0.648857 4.99655C0.790403 4.95654 0.873081 4.80974 0.833923 4.66796L0.546856 3.64062L0.0332031 3.78417L0.32027 4.81148C0.360265 4.95303 0.507071 5.03572 0.648857 4.99655Z" fill="#FA4443"/>
<path d="M3.28899 15.4347L3.80264 15.2912L1.40827 6.72273C1.38262 6.63098 1.30998 6.55987 1.21769 6.5362C1.12541 6.51253 1.02751 6.53989 0.960868 6.60797C0.894226 6.67606 0.86897 6.77452 0.894612 6.86628L3.28899 15.4347Z" fill="#FA4443"/>
<path d="M1.12168 5.69517C1.1017 5.62748 1.05695 5.5698 0.996342 5.53365L0.949222 5.51354C0.932171 5.5078 0.914434 5.50435 0.896475 5.50327C0.8798 5.49995 0.862721 5.49915 0.845808 5.5009C0.828043 5.50274 0.810427 5.50581 0.793088 5.5101C0.725366 5.53002 0.667666 5.57478 0.631542 5.63543C0.563189 5.76476 0.607961 5.92497 0.733462 6.00013C0.764485 6.01645 0.798333 6.02671 0.833195 6.03037C0.867774 6.03492 0.90291 6.03264 0.936608 6.02365C1.00513 6.00525 1.06336 5.96005 1.09817 5.89823C1.13299 5.83642 1.14146 5.7633 1.12168 5.69517Z" fill="#FA4443"/>
<path d="M4.04081 16.0061C3.69064 16.0052 3.3837 15.7717 3.28924 15.4345C3.26131 15.3421 3.28557 15.2417 3.35266 15.1722C3.41975 15.1027 3.51918 15.0749 3.61258 15.0996C3.70598 15.1243 3.77874 15.1975 3.80279 15.291C3.83976 15.4229 3.97654 15.5 4.10852 15.4633L4.39367 15.3836C4.52555 15.3466 4.60255 15.2097 4.5658 15.0778L1.31033 3.42734C1.25382 3.22705 1.04604 3.11012 0.845506 3.16576L0.809053 3.17592C0.608651 3.23224 0.491512 3.44 0.547053 3.64062C0.575229 3.73316 0.551077 3.83371 0.483942 3.90335C0.416806 3.973 0.317216 4.00083 0.223701 3.97607C0.130185 3.95132 0.0574109 3.87786 0.0335326 3.78411C-0.10105 3.29998 0.181526 2.79825 0.665293 2.66238L0.702013 2.65208C1.18611 2.51777 1.68768 2.80017 1.82388 3.28374L5.07935 14.9342C5.13519 15.1338 5.10943 15.3475 5.00775 15.5281C4.90606 15.7087 4.73678 15.8415 4.53716 15.8973L4.25201 15.977C4.18326 15.9962 4.11221 16.006 4.04081 16.0061Z" fill="#FA4443"/>
<path d="M3.77802 11.5317C3.76187 11.5317 3.74575 11.5303 3.72986 11.5273C3.62961 11.5089 3.54861 11.435 3.52125 11.3368L1.33992 3.53148C1.31782 3.45238 1.33339 3.36752 1.3821 3.3014C3.03576 1.05948 5.36778 1.29215 7.62325 1.51767C9.73968 1.72978 11.7386 1.929 13.198 0.182896C13.3054 0.0138764 13.5169 -0.0563016 13.7041 0.0149489C13.7705 0.0437222 13.9843 0.167535 13.9366 0.551642C13.7333 2.19999 13.4183 3.83262 12.9936 5.43826C13.8203 6.19663 14.7494 6.83504 15.7538 7.33474C15.8667 7.38788 15.9475 7.49158 15.9715 7.61402C16.017 7.86754 15.9507 8.12836 15.7895 8.32927L15.7887 8.33031C14.1478 10.2927 11.914 10.0699 9.75138 9.85375C7.54773 9.6337 5.46605 9.42522 3.99253 11.4234C3.9423 11.4915 3.86267 11.5317 3.77802 11.5317ZM1.88922 3.51519L3.89642 10.6979C5.52168 8.895 7.69693 9.1122 9.80448 9.323C11.9201 9.5346 13.9193 9.7342 15.379 7.98863C15.4226 7.92882 15.4488 7.85803 15.4545 7.7842C14.4304 7.2628 13.4816 6.60514 12.634 5.82914C12.4857 5.69673 12.4254 5.49157 12.4786 5.29996C12.8712 3.81808 13.168 2.31244 13.3671 0.792416C11.7515 2.46599 9.62776 2.25348 7.57048 2.04842C5.40381 1.83196 3.35776 1.6273 1.88922 3.51519Z" fill="#FA4443"/>
</g>
<defs>
<clipPath id="clip0_595_3071">
<rect width="16" height="16" fill="white"/>
</clipPath>
</defs>
</svg>
