<svg width="60" height="60" viewBox="-12.5 0 72.5 60" fill="none" xmlns="http://www.w3.org/2000/svg">
<g clip-path="url(#clip0_448_7337)">
<path d="M35.1562 58.2422H36.9141V60H35.1562V58.2422Z" fill="white"/>
<path d="M26.5263 50.332L25.1314 41.9623C25.9226 41.1464 26.3677 40.0587 26.3677 38.9062C26.3677 36.483 24.3963 34.5117 21.9731 34.5117C19.5499 34.5117 17.5786 36.483 17.5786 38.9062C17.5786 40.0586 18.0237 41.1463 18.8149 41.9623L17.4199 50.332H26.5263ZM21.9731 36.2695C23.427 36.2695 24.6098 37.4523 24.6098 38.9062C24.6098 39.7045 24.2536 40.4514 23.6325 40.9552L23.235 41.2774L24.4512 48.5741H19.495L20.7111 41.2774L20.3136 40.955C19.6925 40.4511 19.3363 39.7044 19.3363 38.9061C19.3364 37.4523 20.5193 36.2695 21.9731 36.2695Z" fill="white"/>
<path d="M46.8164 29.2383C45.8305 29.2383 44.8699 29.3479 43.9453 29.5541V24.8438H40.4297V18.457C40.4297 13.5465 38.5044 8.91691 35.0087 5.42109C31.5129 1.92527 26.8833 0 21.9728 0C17.0621 0 12.4324 1.92516 8.93672 5.42098C5.4409 8.91668 3.51562 13.5464 3.51562 18.457V24.8438H0V57.3633C0 58.8172 1.18289 60 2.63672 60H33.3984V58.2422H2.63672C2.15203 58.2422 1.75781 57.8479 1.75781 57.3633V26.6016H42.1875V30.0778C37.1948 31.9562 33.6328 36.7805 33.6328 42.4219C33.6328 48.0633 37.1948 52.8874 42.1875 54.7658V57.3633C42.1875 57.8479 41.7933 58.2422 41.3086 58.2422H38.672V60H41.3086C42.7624 60 43.9453 58.8172 43.9453 57.3633V55.2896C44.8699 55.4958 45.8305 55.6055 46.8164 55.6055C54.0858 55.6055 60 49.6914 60 42.4219C60 35.1524 54.0858 29.2383 46.8164 29.2383ZM5.27344 18.457C5.27344 14.016 7.01578 9.8277 10.1796 6.66398C13.3433 3.50016 17.5317 1.75781 21.9728 1.75781C26.4137 1.75781 30.602 3.50027 33.7657 6.6641C36.9295 9.82793 38.6719 14.0161 38.6719 18.457V24.8438H35.1562V18.457C35.1562 14.9542 33.7798 11.6487 31.2805 9.1493C28.7811 6.64992 25.4756 5.27344 21.9728 5.27344C18.8276 5.27344 15.7747 6.41496 13.3768 8.48754L14.5263 9.8175C16.605 8.02078 19.2496 7.03125 21.9728 7.03125C25.0061 7.03125 27.8701 8.22492 30.0374 10.3923C32.2048 12.5597 33.3984 15.4237 33.3984 18.457V24.8438H10.5469V18.457C10.5469 15.7341 11.5363 13.0895 13.3331 11.0107L12.0032 9.86121C9.93047 12.2593 8.78906 15.3121 8.78906 18.457V24.8438H5.27344V18.457ZM46.8164 53.8477C40.5162 53.8477 35.3906 48.7221 35.3906 42.4219C35.3906 36.1216 40.5162 30.9961 46.8164 30.9961C53.1166 30.9961 58.2422 36.1216 58.2422 42.4219C58.2422 48.7221 53.1166 53.8477 46.8164 53.8477Z" fill="white"/>
<path d="M46.9061 35.1464C45.7271 35.1226 44.6195 35.563 43.78 36.3858C42.9401 37.2089 42.4775 38.3097 42.4775 39.4849H44.2354C44.2354 38.7858 44.5106 38.131 45.0103 37.6412C45.5099 37.1516 46.1728 36.8898 46.8705 36.9039C48.2162 36.9311 49.325 38.0039 49.3948 39.3464C49.4319 40.0629 49.1814 40.7431 48.6889 41.2616C48.1962 41.7806 47.5314 42.0665 46.8169 42.0665H45.938V45.3038H47.6958V43.7332C48.5551 43.554 49.3523 43.1158 49.9637 42.4718C50.7914 41.6002 51.2127 40.4577 51.1504 39.255C51.033 36.9968 49.1686 35.192 46.9061 35.1464Z" fill="white"/>
<path d="M45.9375 47.0615H47.6953V48.8193H45.9375V47.0615Z" fill="white"/>
<path d="M19.3359 28.3594H21.0938V30.1172H19.3359V28.3594Z" fill="white"/>
<path d="M22.8516 28.3594H24.6095V30.1172H22.8516V28.3594Z" fill="white"/>
</g>
<defs>
<clipPath id="clip0_448_7337">
<rect width="60" height="60" fill="white"/>
</clipPath>
</defs>
</svg>
