<svg width="20" height="20" viewBox="0 0 20 20" fill="none" xmlns="http://www.w3.org/2000/svg">
<g clip-path="url(#clip0_3024_3131)">
<path d="M17.9519 5.46559L11.725 1.2206C10.6775 0.506221 9.32249 0.506221 8.27499 1.2206L2.04812 5.46559C1.21062 6.03684 0.709991 6.98247 0.709991 7.99622V16.25C0.709991 17.9387 2.08374 19.3125 3.77249 19.3125H16.2262C17.915 19.3125 19.2887 17.9387 19.2887 16.25V7.99559C19.2894 6.98247 18.7887 6.03622 17.9519 5.46559ZM13.2462 18.1868H6.75374V12.09C6.75374 11.7112 7.06186 11.4025 7.44124 11.4025H12.5594C12.9381 11.4025 13.2469 11.7106 13.2469 12.09L13.2462 18.1868ZM18.1637 16.2493C18.1637 17.3175 17.2944 18.1868 16.2262 18.1868H14.3712V12.09C14.3712 11.0906 13.5575 10.2775 12.5587 10.2775H7.44061C6.44124 10.2775 5.62812 11.0906 5.62812 12.09V18.1868H3.77312C2.70499 18.1868 1.83562 17.3175 1.83562 16.2493V7.99559C1.83562 7.35434 2.15187 6.75622 2.68187 6.39434L8.90874 2.14935C9.23999 1.92372 9.62061 1.8106 9.99999 1.8106C10.3794 1.8106 10.76 1.92372 11.0912 2.14935L17.3181 6.39434C17.8481 6.75559 18.1644 7.35434 18.1644 7.99559L18.1637 16.2493Z" fill="#3D7DF6"/>
<path d="M12.4056 6.69934H7.595C7.28438 6.69934 7.0325 6.95122 7.0325 7.26184C7.0325 7.57247 7.28438 7.82434 7.595 7.82434H12.4056C12.7163 7.82434 12.9681 7.57247 12.9681 7.26184C12.9681 6.95122 12.7163 6.69934 12.4056 6.69934Z" fill="#3D7DF6"/>
</g>
<defs>
<clipPath id="clip0_3024_3131">
<rect width="20" height="20" fill="white"/>
</clipPath>
</defs>
</svg>
