<svg width="20" height="20" viewBox="0 0 20 20" fill="none" xmlns="http://www.w3.org/2000/svg">
<path d="M17.5913 14.6464C18.4492 13.2487 18.9023 11.6402 18.9 10.0001V9.99982C18.9023 8.35975 18.4492 6.75125 17.5912 5.35348L17.5864 5.34585C16.7904 4.04853 15.675 2.977 14.3469 2.23365C13.0187 1.49031 11.5221 1.09998 10 1.09998C8.47799 1.09997 6.98138 1.49028 5.6532 2.23362C4.32502 2.97695 3.20965 4.04847 2.41368 5.34579L2.40873 5.35352C1.5529 6.75224 1.10001 8.36017 1.10001 9.99995C1.1 11.6397 1.55288 13.2477 2.4087 14.6464L2.41373 14.6542C3.20971 15.9515 4.32507 17.023 5.65324 17.7663C6.98141 18.5097 8.47801 18.9 10 18.9C11.5221 18.9 13.0187 18.5096 14.3468 17.7663C15.675 17.023 16.7903 15.9515 17.5863 14.6541L17.5913 14.6464ZM11.1376 17.3746C10.968 17.5383 10.7728 17.6731 10.5597 17.7737C10.3848 17.8568 10.1936 17.9 10 17.9C9.80636 17.9 9.61515 17.8568 9.44025 17.7737C9.03475 17.5666 8.68763 17.2612 8.43063 16.8853C7.90576 16.1268 7.51679 15.2829 7.28111 14.3912C8.18649 14.3354 9.09279 14.3071 10 14.306C10.9068 14.306 11.8132 14.3344 12.719 14.3912C12.5886 14.8497 12.4256 15.2983 12.2314 15.7336C11.9757 16.3458 11.6043 16.903 11.1376 17.3746ZM2.11741 10.5H5.70721C5.73058 11.5017 5.83915 12.4995 6.03175 13.4828C5.05044 13.5692 4.07164 13.6878 3.09534 13.8386C2.52364 12.8129 2.18945 11.672 2.11741 10.5ZM3.09533 6.16133C4.07125 6.31256 5.0504 6.43119 6.03278 6.51721C5.8398 7.50042 5.73099 8.49828 5.70753 9.49998H2.11741C2.18944 8.32794 2.52364 7.18701 3.09533 6.16133ZM8.86237 2.62531C9.03196 2.46166 9.22716 2.32684 9.44025 2.22618C9.61515 2.14308 9.80636 2.09996 10 2.09996C10.1936 2.09996 10.3848 2.14308 10.5597 2.22618C10.9652 2.43331 11.3124 2.73877 11.5694 3.11465C12.0942 3.8731 12.4832 4.71705 12.7189 5.60878C11.8135 5.66449 10.9072 5.69287 10 5.69392C9.09317 5.69391 8.18682 5.66552 7.28095 5.60877C7.41141 5.15028 7.57435 4.70167 7.76856 4.26633C8.02428 3.65409 8.39566 3.09691 8.86237 2.62531ZM17.8826 9.49998H14.2928C14.2694 8.49829 14.1609 7.5004 13.9683 6.51713C14.9496 6.43077 15.9284 6.31217 16.9047 6.16132C17.4764 7.18701 17.8106 8.32793 17.8826 9.49998ZM7.03752 13.4051C6.84196 12.4483 6.73151 11.4762 6.70746 10.5H13.2926C13.2688 11.4762 13.1586 12.4484 12.9632 13.4051C11.9765 13.3404 10.9888 13.3073 10 13.306C9.01191 13.306 8.02441 13.339 7.03752 13.4051ZM12.9625 6.59487C13.158 7.55159 13.2685 8.52376 13.2925 9.49998H6.70735C6.73118 8.52376 6.84142 7.55158 7.03681 6.59482C8.02345 6.65956 9.01119 6.69258 10 6.69391C10.9881 6.69391 11.9756 6.66089 12.9625 6.59487ZM14.2925 10.5H17.8826C17.8106 11.672 17.4764 12.8129 16.9047 13.8386C15.9287 13.6874 14.9496 13.5687 13.9672 13.4827C14.1602 12.4995 14.269 11.5017 14.2925 10.5ZM16.3051 5.24093C15.4518 5.36404 14.596 5.4615 13.7376 5.53333C13.5833 4.95895 13.3844 4.39751 13.1425 3.85417C12.9217 3.35416 12.6439 2.88134 12.3146 2.44511C13.9061 2.93322 15.3028 3.91173 16.3051 5.24093ZM4.41384 4.41381C5.32682 3.49996 6.45003 2.82401 7.68502 2.44523C7.66628 2.4695 7.647 2.49269 7.62853 2.51746C6.99375 3.43125 6.53138 4.4534 6.26421 5.53348C5.40578 5.46078 4.54936 5.36326 3.69492 5.24093C3.91528 4.94904 4.15549 4.67268 4.41384 4.41381ZM3.69492 14.759C4.54817 14.6359 5.40399 14.5384 6.26237 14.4666C6.41664 15.041 6.61562 15.6024 6.85746 16.1458C7.07827 16.6458 7.3561 17.1186 7.68543 17.5548C6.09386 17.0667 4.69721 16.0882 3.69492 14.759ZM15.5862 15.5861C14.6732 16.5 13.55 17.1759 12.315 17.5547C12.3337 17.5304 12.353 17.5072 12.3715 17.4825C13.0062 16.5687 13.4686 15.5465 13.7358 14.4665C14.5942 14.5392 15.4507 14.6367 16.3051 14.759C16.0847 15.0509 15.8445 15.3273 15.5862 15.5861Z" fill="#5A5A5A"/>
</svg>
