<svg width="20" height="20" viewBox="0 0 20 20" fill="none" xmlns="http://www.w3.org/2000/svg">
<path d="M7.7681 8.67937H12.2318C12.8331 8.67937 13.3225 8.19 13.3225 7.58875V7.40062C13.3225 6.33875 12.715 5.42563 11.8356 4.96125C12.2662 4.50625 12.5356 3.89625 12.5356 3.22188C12.535 1.82438 11.3975 0.6875 9.99998 0.6875C8.60248 0.6875 7.46498 1.82438 7.46498 3.2225C7.46498 3.89688 7.73373 4.50688 8.16498 4.96187C7.2856 5.42625 6.6781 6.33937 6.6781 7.40125V7.58937C6.6781 8.19 7.16685 8.67937 7.7681 8.67937ZM9.99998 1.8125C10.7775 1.8125 11.41 2.445 11.41 3.22188C11.41 3.99938 10.7775 4.63188 9.99998 4.63188C9.22248 4.63188 8.58998 3.99938 8.58998 3.22188C8.58998 2.445 9.22248 1.8125 9.99998 1.8125ZM7.80248 7.40062C7.80248 6.49437 8.53998 5.7575 9.4456 5.7575H10.5531C11.4594 5.7575 12.1962 6.49437 12.1962 7.40062V7.55437L7.80185 7.58875V7.40062H7.80248Z" fill="#5A5A5A"/>
<path d="M6.31561 15.5944C6.74624 15.1401 7.01499 14.5301 7.01499 13.8557C7.01499 12.4582 5.87811 11.3207 4.48061 11.3207C3.08311 11.3207 1.94561 12.4576 1.94561 13.8557C1.94561 14.5301 2.21436 15.1394 2.64499 15.5944C1.76561 16.0588 1.15811 16.9726 1.15811 18.0344V18.2226C1.15811 18.8238 1.64749 19.3132 2.24874 19.3132H6.71249C7.31374 19.3132 7.80311 18.8238 7.80311 18.2226V18.0344C7.80249 16.9726 7.19499 16.0588 6.31561 15.5944ZM4.48061 12.4463C5.25811 12.4463 5.88999 13.0788 5.88999 13.8557C5.88999 14.6326 5.25749 15.2651 4.48061 15.2651C3.70374 15.2651 3.07061 14.6326 3.07061 13.8557C3.07061 13.0788 3.70311 12.4463 4.48061 12.4463ZM6.67811 18.1882L2.28311 18.2226V18.0344C2.28311 17.1282 3.02061 16.3907 3.92624 16.3907H5.03436C5.94061 16.3907 6.67749 17.1282 6.67749 18.0344V18.1882H6.67811Z" fill="#5A5A5A"/>
<path d="M17.355 15.5944C17.7856 15.1401 18.0544 14.5301 18.0544 13.8557C18.0544 12.4582 16.9175 11.3207 15.5194 11.3207C14.1212 11.3207 12.985 12.4576 12.985 13.8557C12.985 14.5301 13.2537 15.1394 13.6844 15.5944C12.805 16.0588 12.1975 16.9726 12.1975 18.0344V18.2226C12.1975 18.8238 12.6869 19.3132 13.2881 19.3132H17.7519C18.3531 19.3132 18.8425 18.8238 18.8425 18.2226V18.0344C18.8419 16.9726 18.2344 16.0588 17.355 15.5944ZM15.5194 12.4463C16.2969 12.4463 16.9294 13.0788 16.9294 13.8557C16.9294 14.6326 16.2969 15.2651 15.5194 15.2651C14.7419 15.2651 14.11 14.6326 14.11 13.8557C14.11 13.0788 14.7419 12.4463 15.5194 12.4463ZM17.7169 18.1882L13.3219 18.2226V18.0344C13.3219 17.1282 14.0594 16.3907 14.965 16.3907H16.0731C16.9794 16.3907 17.7162 17.1282 17.7162 18.0344L17.7169 18.1882Z" fill="#5A5A5A"/>
<path d="M10.5625 11.3163V10C10.5625 9.68937 10.3106 9.4375 9.99998 9.4375C9.68936 9.4375 9.43748 9.68937 9.43748 10V11.3163L8.12998 12.3213C7.88373 12.5106 7.83748 12.8637 8.02623 13.1106C8.21498 13.3575 8.56873 13.4025 8.81498 13.2137L9.99998 12.3031L11.185 13.2137C11.2875 13.2919 11.4075 13.3306 11.5275 13.3306C11.6962 13.3306 11.8631 13.255 11.9737 13.1106C12.1631 12.8637 12.1169 12.5106 11.87 12.3213L10.5625 11.3163Z" fill="#5A5A5A"/>
</svg>
