<svg width="30" height="30" viewBox="0 0 30 30" fill="none" xmlns="http://www.w3.org/2000/svg">
<g clip-path="url(#clip0_3242_1385)">
<path d="M8.7856 0.222109C8.71545 0.151708 8.63208 0.0958485 8.54029 0.0577342C8.4485 0.0196198 8.35009 0 8.2507 0C8.15131 0 8.0529 0.0196198 7.96111 0.0577342C7.86932 0.0958485 7.78595 0.151708 7.7158 0.222109L3.70842 4.2062L2.27992 2.81419C2.20976 2.74379 2.12639 2.68793 2.0346 2.64981C1.94281 2.6117 1.8444 2.59208 1.74501 2.59208C1.64562 2.59208 1.54721 2.6117 1.45542 2.64981C1.36363 2.68793 1.28026 2.74379 1.21011 2.81419L0.222109 3.80345C0.151708 3.8736 0.0958485 3.95697 0.0577341 4.04876C0.0196197 4.14055 0 4.23896 0 4.33835C0 4.43774 0.0196197 4.53615 0.0577341 4.62794C0.0958485 4.71973 0.151708 4.8031 0.222109 4.87325L3.21694 7.85613C3.36643 7.99823 3.56479 8.07746 3.77104 8.07746C3.97728 8.07746 4.17565 7.99823 4.32514 7.85613L5.30621 6.87317L9.84975 2.33026C9.99131 2.18858 10.0713 1.9968 10.0724 1.79652C10.0734 1.59624 9.99547 1.40362 9.85541 1.26045L8.7856 0.222109ZM8.7856 10.2399C8.71545 10.1695 8.63208 10.1137 8.54029 10.0755C8.4485 10.0374 8.35009 10.0178 8.2507 10.0178C8.15131 10.0178 8.0529 10.0374 7.96111 10.0755C7.86932 10.1137 7.78595 10.1695 7.7158 10.2399L3.70842 14.2498L2.27992 12.8591C2.20976 12.7887 2.12639 12.7328 2.0346 12.6947C1.94281 12.6566 1.8444 12.6369 1.74501 12.6369C1.64562 12.6369 1.54721 12.6566 1.45542 12.6947C1.36363 12.7328 1.28026 12.7887 1.21011 12.8591L0.222109 13.8464C0.151708 13.9166 0.0958485 13.9999 0.0577341 14.0917C0.0196197 14.1835 0 14.2819 0 14.3813C0 14.4807 0.0196197 14.5791 0.0577341 14.6709C0.0958485 14.7627 0.151708 14.8461 0.222109 14.9162L3.20939 17.9054C3.35877 18.0475 3.55703 18.1267 3.76317 18.1267C3.96931 18.1267 4.16757 18.0475 4.31695 17.9054L5.30495 16.918L9.84849 12.3732C9.98951 12.2325 10.0692 12.0418 10.0703 11.8426C10.0714 11.6434 9.99367 11.4519 9.85415 11.3097L8.7856 10.2399ZM4.02748 21.1463C2.36047 21.1463 0.969715 22.4993 0.969715 24.1669C0.969715 25.8346 2.36172 27.1875 4.02748 27.1875C4.8286 27.1875 5.59691 26.8693 6.16339 26.3028C6.72987 25.7363 7.04811 24.968 7.04811 24.1669C7.04811 23.3658 6.72987 22.5975 6.16339 22.031C5.59691 21.4645 4.8286 21.1463 4.02748 21.1463ZM31.2132 22.1532H13.0894C12.8223 22.1532 12.5662 22.2592 12.3774 22.4481C12.1886 22.6369 12.0825 22.893 12.0825 23.16V25.1738C12.0825 25.4408 12.1886 25.6969 12.3774 25.8858C12.5662 26.0746 12.8223 26.1807 13.0894 26.1807H31.2132C31.4802 26.1807 31.7363 26.0746 31.9251 25.8858C32.114 25.6969 32.2201 25.4408 32.2201 25.1738V23.16C32.2201 22.893 32.114 22.6369 31.9251 22.4481C31.7363 22.2592 31.4802 22.1532 31.2132 22.1532ZM31.2132 2.01561H13.0894C12.8223 2.01561 12.5662 2.12169 12.3774 2.31052C12.1886 2.49934 12.0825 2.75545 12.0825 3.02249V5.03624C12.0825 5.30328 12.1886 5.55939 12.3774 5.74821C12.5662 5.93704 12.8223 6.04312 13.0894 6.04312H31.2132C31.4802 6.04312 31.7363 5.93704 31.9251 5.74821C32.114 5.55939 32.2201 5.30328 32.2201 5.03624V3.02249C32.2201 2.75545 32.114 2.49934 31.9251 2.31052C31.7363 2.12169 31.4802 2.01561 31.2132 2.01561ZM31.2132 12.0844H13.0894C12.8223 12.0844 12.5662 12.1905 12.3774 12.3793C12.1886 12.5681 12.0825 12.8242 12.0825 13.0913V15.105C12.0825 15.3721 12.1886 15.6282 12.3774 15.817C12.5662 16.0058 12.8223 16.1119 13.0894 16.1119H31.2132C31.4802 16.1119 31.7363 16.0058 31.9251 15.817C32.114 15.6282 32.2201 15.3721 32.2201 15.105V13.0913C32.2201 12.8242 32.114 12.5681 31.9251 12.3793C31.7363 12.1905 31.4802 12.0844 31.2132 12.0844Z" fill="white"/>
</g>
<defs>
<clipPath id="clip0_3242_1385">
<rect width="30" height="30" fill="white"/>
</clipPath>
</defs>
</svg>
