<svg width="21" height="20" viewBox="0 0 21 20" fill="none" xmlns="http://www.w3.org/2000/svg">
<path d="M10.5003 17.6545C10.3866 17.6545 5.08379 17.6545 5.08379 17.6545C4.74121 17.6545 4.45559 17.4944 4.31969 17.2261C4.18383 16.9578 4.22375 16.6328 4.42648 16.3565L5.10723 15.4318C3.66383 13.9983 2.8457 12.0476 2.8457 9.99986C2.8457 5.77908 6.27953 2.34521 10.5003 2.34521C14.7211 2.34521 18.155 5.77908 18.155 9.99986C18.155 14.2207 14.7211 17.6545 10.5003 17.6545ZM10.5003 16.4826C14.0749 16.4826 16.9831 13.5745 16.9831 9.99986C16.9831 6.42525 14.0749 3.51709 10.5003 3.51709C6.9257 3.51709 4.01758 6.42525 4.01758 9.99986C4.01758 11.8884 4.83922 13.6794 6.27184 14.9138L6.68293 15.268L5.78879 16.4826H10.5003Z" fill="#3D7DF6"/>
<path d="M8.4593 9.99975C8.4593 10.4501 8.09422 10.8153 7.64379 10.8153C7.19328 10.8153 6.82812 10.4501 6.82812 9.99975C6.82812 9.54924 7.19328 9.18408 7.64379 9.18408C8.09422 9.18408 8.4593 9.54928 8.4593 9.99975Z" fill="#3D7DF6"/>
<path d="M10.5011 10.8152C10.9515 10.8152 11.3166 10.45 11.3166 9.99963C11.3166 9.54922 10.9515 9.18408 10.5011 9.18408C10.0507 9.18408 9.68555 9.54922 9.68555 9.99963C9.68555 10.45 10.0507 10.8152 10.5011 10.8152Z" fill="#3D7DF6"/>
<path d="M13.3566 10.8153C13.807 10.8153 14.1722 10.4501 14.1722 9.99967C14.1722 9.54923 13.807 9.18408 13.3566 9.18408C12.9062 9.18408 12.541 9.54923 12.541 9.99967C12.541 10.4501 12.9062 10.8153 13.3566 10.8153Z" fill="#3D7DF6"/>
</svg>
