<svg width="25" height="25" viewBox="0 0 25 25" fill="none" xmlns="http://www.w3.org/2000/svg">
<path d="M13.2812 5.07812C13.2812 4.64666 12.9315 4.29688 12.5 4.29688C12.0685 4.29688 11.7188 4.64666 11.7188 5.07812V8.59375C11.7188 8.83109 11.8266 9.05555 12.012 9.20383L13.9651 10.7663C14.302 11.0359 14.7937 10.9812 15.0632 10.6443C15.3327 10.3073 15.2781 9.8157 14.9412 9.54617L13.2812 8.21828V5.07812Z" fill="#FA942F"/>
<path fill-rule="evenodd" clip-rule="evenodd" d="M5.46875 8.59375C5.46875 4.7105 8.61672 1.5625 12.5 1.5625C16.3833 1.5625 19.5312 4.7105 19.5312 8.59375C19.5312 12.477 16.3833 15.625 12.5 15.625C8.61672 15.625 5.46875 12.477 5.46875 8.59375ZM12.5 3.125C9.47969 3.125 7.03125 5.57345 7.03125 8.59375C7.03125 11.6141 9.47969 14.0625 12.5 14.0625C15.5203 14.0625 17.9688 11.6141 17.9688 8.59375C17.9688 5.57345 15.5203 3.125 12.5 3.125Z" fill="#FA942F"/>
<path d="M4.6875 19.5312C4.25603 19.5312 3.90625 19.881 3.90625 20.3125C3.90625 20.744 4.25603 21.0938 4.6875 21.0938H9.375C9.80648 21.0938 10.1562 20.744 10.1562 20.3125C10.1562 19.881 9.80648 19.5312 9.375 19.5312H4.6875Z" fill="#FA942F"/>
<path fill-rule="evenodd" clip-rule="evenodd" d="M4.6875 17.1875C2.96161 17.1875 1.5625 18.5866 1.5625 20.3125C1.5625 22.0384 2.96161 23.4375 4.6875 23.4375H20.3125C22.0384 23.4375 23.4375 22.0384 23.4375 20.3125C23.4375 18.5866 22.0384 17.1875 20.3125 17.1875H4.6875ZM3.125 20.3125C3.125 19.4495 3.82455 18.75 4.6875 18.75H20.3125C21.1755 18.75 21.875 19.4495 21.875 20.3125C21.875 21.1755 21.1755 21.875 20.3125 21.875H4.6875C3.82455 21.875 3.125 21.1755 3.125 20.3125Z" fill="#FA942F"/>
</svg>
