<svg width="25" height="25" viewBox="0 0 25 25" fill="none" xmlns="http://www.w3.org/2000/svg">
<g clip-path="url(#clip0_595_4662)">
<path d="M14.0618 4.35417C13.7743 4.35417 13.541 4.12083 13.541 3.83333V2.08333C13.541 1.50937 13.0733 1.04167 12.4993 1.04167C11.9254 1.04167 11.4577 1.50937 11.4577 2.08333V3.83333C11.4577 4.12083 11.2243 4.35417 10.9368 4.35417C10.6493 4.35417 10.416 4.12187 10.416 3.83333V2.08333C10.416 0.934375 11.3504 0 12.4993 0C13.6483 0 14.5827 0.934375 14.5827 2.08333V3.83333C14.5827 4.12187 14.3493 4.35417 14.0618 4.35417Z" fill="white"/>
<path d="M12.4993 25.0002C10.4889 25.0002 8.85352 23.3647 8.85352 21.3543C8.85352 21.0668 9.08685 20.8335 9.37435 20.8335C9.66185 20.8335 9.89518 21.0668 9.89518 21.3543C9.89518 22.7897 11.0639 23.9585 12.4993 23.9585C13.9348 23.9585 15.1035 22.7897 15.1035 21.3543C15.1035 21.0668 15.3368 20.8335 15.6243 20.8335C15.9118 20.8335 16.1452 21.0668 16.1452 21.3543C16.1452 23.3647 14.5098 25.0002 12.4993 25.0002Z" fill="white"/>
<path d="M21.3548 21.875H3.64648C2.78503 21.875 2.08398 21.174 2.08398 20.3125C2.08398 19.8552 2.28294 19.4229 2.63086 19.125C4.27253 17.7375 5.20898 15.7188 5.20898 13.5812V10.4167C5.20898 6.39583 8.47982 3.125 12.5007 3.125C16.5215 3.125 19.7923 6.39583 19.7923 10.4167V13.5812C19.7923 15.7198 20.7288 17.7375 22.3621 19.1177C22.7184 19.4229 22.9173 19.8552 22.9173 20.3125C22.9173 21.174 22.2173 21.875 21.3548 21.875ZM12.5007 4.16667C9.05378 4.16667 6.25065 6.96979 6.25065 10.4167V13.5812C6.25065 16.0271 5.17982 18.3344 3.31211 19.9135C3.19232 20.0156 3.12565 20.1604 3.12565 20.3125C3.12565 20.6 3.35898 20.8333 3.64648 20.8333H21.3548C21.6423 20.8333 21.8757 20.6 21.8757 20.3125C21.8757 20.1604 21.809 20.0156 21.6934 19.9167C19.8225 18.3344 18.7507 16.026 18.7507 13.5812V10.4167C18.7507 6.96979 15.9475 4.16667 12.5007 4.16667Z" fill="white"/>
</g>
<defs>
<clipPath id="clip0_595_4662">
<rect width="25" height="25" fill="white"/>
</clipPath>
</defs>
</svg>
