<svg width="60" height="60" viewBox="0 0 60 60" fill="none" xmlns="http://www.w3.org/2000/svg">
<g clip-path="url(#clip0_448_7406)">
<path d="M54.3449 5.6551C46.8047 -1.88509 34.5359 -1.88498 26.9957 5.6551C21.8457 10.805 20.0575 18.3963 22.2865 25.282L0.515039 47.0536C0.185273 47.3832 0 47.8304 0 48.2967V58.2419C0 59.213 0.787148 60 1.75805 60H11.7033C12.1697 60 12.6166 59.8147 12.9465 59.4849L15.4332 56.9982C15.813 56.6183 15.9984 56.0857 15.9363 55.552L15.626 52.8821L19.3273 52.5333C20.1677 52.454 20.8334 51.7885 20.9126 50.9481L21.2617 47.2464L23.9318 47.5567C24.4303 47.6149 24.9293 47.4569 25.3041 47.1233C25.6786 46.7898 25.8929 46.312 25.8929 45.8103V42.5364H29.1074C29.5702 42.5364 30.0142 42.3539 30.3434 42.0286L34.7112 37.7112C41.5985 39.9437 49.1936 38.1558 54.345 33.0042C61.885 25.4641 61.885 13.1952 54.3449 5.6551ZM51.8586 30.5181C47.4212 34.9554 40.765 36.3404 34.9012 34.0471C34.2541 33.794 33.5189 33.9457 33.025 34.434L28.3852 39.0203H24.1348C23.1639 39.0203 22.3767 39.8074 22.3767 40.7783V43.8361L19.883 43.5463C19.4132 43.4918 18.9414 43.6287 18.5737 43.9261C18.2062 44.2236 17.974 44.6566 17.9296 45.1275L17.5484 49.1692L13.507 49.55C13.0362 49.5944 12.6032 49.8266 12.3055 50.1942C12.008 50.5617 11.871 51.0337 11.9256 51.5034L12.3454 55.1133L10.975 56.484H3.51598V49.0251L25.5586 26.9825C26.0524 26.4887 26.2072 25.7494 25.9528 25.099C23.6592 19.2351 25.0445 12.5791 29.4818 8.14159C35.6512 1.97237 45.6893 1.97237 51.8585 8.14159C58.0277 14.3107 58.0277 24.3489 51.8586 30.5181Z" fill="white"/>
<path d="M49.3723 10.6273C47.3159 8.57079 43.9697 8.5709 41.9134 10.6273C39.857 12.6837 39.857 16.0298 41.9134 18.0862C43.9697 20.1426 47.3159 20.1428 49.3723 18.0862C51.4287 16.0298 51.4287 12.6837 49.3723 10.6273ZM46.886 15.5999C46.2006 16.2854 45.0853 16.2855 44.3998 15.5999C43.7143 14.9145 43.7143 13.7992 44.3998 13.1137C45.0871 12.4265 46.1988 12.4265 46.886 13.1137C47.5732 13.8009 47.5731 14.9127 46.886 15.5999Z" fill="white"/>
</g>
<defs>
<clipPath id="clip0_448_7406">
<rect width="60" height="60" fill="white"/>
</clipPath>
</defs>
</svg>
