<svg width="20" height="20" viewBox="0 0 20 20" fill="none" xmlns="http://www.w3.org/2000/svg">
<path d="M15.3125 9.48586V2.14844C15.3125 1.99301 15.2508 1.84398 15.1409 1.73414L13.5784 0.171641C13.4685 0.0617188 13.3195 0 13.1641 0H2.14844C1.99301 0 1.84398 0.0617188 1.73414 0.171641L0.171641 1.73414C0.0617188 1.84398 0 1.99301 0 2.14844V13.1641C0 13.3195 0.0617188 13.4685 0.171641 13.5784L1.73414 15.1409C1.84398 15.2508 1.99301 15.3125 2.14844 15.3125H9.48586C9.77828 17.9455 12.0168 20 14.7266 20C17.6343 20 20 17.6343 20 14.7266C20 12.0168 17.9455 9.77828 15.3125 9.48586ZM9.48586 14.1406H8.24219V13.5547C8.24219 13.2311 7.97984 12.9688 7.65625 12.9688C7.33266 12.9688 7.07031 13.2311 7.07031 13.5547V14.1406H2.39113L1.17188 12.9214V8.24219H1.75781C2.08141 8.24219 2.34375 7.97984 2.34375 7.65625C2.34375 7.33266 2.08141 7.07031 1.75781 7.07031H1.17188V2.39113L2.39113 1.17188H7.07031V1.75781C7.07031 2.08141 7.33266 2.34375 7.65625 2.34375C7.97984 2.34375 8.24219 2.08141 8.24219 1.75781V1.17188H12.9214L14.1406 2.39113V7.07031H13.5547C13.2311 7.07031 12.9688 7.33266 12.9688 7.65625C12.9688 7.97984 13.2311 8.24219 13.5547 8.24219H14.1406V9.48586C11.7 9.75691 9.75691 11.7 9.48586 14.1406ZM14.7266 17.6562C13.1111 17.6562 11.7969 16.342 11.7969 14.7266C11.7969 13.1111 13.1111 11.7969 14.7266 11.7969C16.342 11.7969 17.6562 13.1111 17.6562 14.7266C17.6562 16.342 16.342 17.6562 14.7266 17.6562ZM5.11906 9.12109C4.95727 8.84086 5.05328 8.4825 5.33352 8.3207L7.07031 7.31797V4.53125C7.07031 4.20766 7.33266 3.94531 7.65625 3.94531C7.97984 3.94531 8.24219 4.20766 8.24219 4.53125V7.65625C8.24219 7.86559 8.13051 8.05902 7.94922 8.16367L5.91945 9.33555C5.63922 9.49734 5.28086 9.40133 5.11906 9.12109Z" fill="#BFC5CD"/>
</svg>
