<svg width="20" height="20" viewBox="0 0 20 20" fill="none" xmlns="http://www.w3.org/2000/svg">
<g clip-path="url(#clip0_1045_2539)">
<path d="M11.8047 0H4.33984C3.62109 0 3.03516 0.585938 3.03516 1.30859V18.6953C3.03516 19.418 3.62109 20 4.34375 20.0039H17.4492C18.1719 20.0039 18.7539 19.418 18.7578 18.6953L18.7188 5.78125L11.8047 0Z" fill="#4EB3F2"/>
<path d="M11.8047 0L11.7852 5.64453C11.7852 5.64453 11.8047 5.78125 11.9219 5.78125H18.7188L11.8047 0Z" fill="#0077CC"/>
<path d="M1.77734 9.63672H14.9648C15.2578 9.63672 15.4961 9.875 15.4961 10.168V16.0586C15.4961 16.3516 15.2578 16.5898 14.9648 16.5898H1.77734C1.48438 16.5898 1.24609 16.3516 1.24609 16.0586V10.168C1.24609 9.875 1.48438 9.63672 1.77734 9.63672Z" fill="#0077CC"/>
<path d="M3.75781 11.6836H5.26172C5.58984 11.6836 5.83594 11.7617 5.99609 11.918C6.15625 12.0742 6.24219 12.2969 6.24219 12.582C6.24219 12.8789 6.15234 13.1094 5.97656 13.2734C5.80078 13.4375 5.52734 13.5234 5.16406 13.5234H4.66797V14.6094H3.75781V11.6836ZM4.66406 12.9336H4.88672C5.0625 12.9336 5.18359 12.9023 5.25391 12.8437C5.32422 12.7852 5.36328 12.6992 5.35938 12.6094C5.36328 12.5234 5.32813 12.4375 5.26563 12.375C5.20313 12.3125 5.08984 12.2773 4.92188 12.2773H4.66406V12.9336Z" fill="white"/>
<path d="M6.71875 11.6836H7.5625L8.66406 13.3008V11.6836H9.51563V14.6094H8.66406L7.57031 13.0039V14.6094H6.71875V11.6836Z" fill="white"/>
<path d="M11.5866 13.5508V12.9414H12.985V14.1875C12.7194 14.3711 12.4811 14.4922 12.2741 14.5586C12.0358 14.6289 11.7897 14.6641 11.5436 14.6563C11.196 14.6563 10.9147 14.5977 10.696 14.4805C10.4772 14.3594 10.2975 14.1758 10.1882 13.9531C10.0632 13.7031 10.0007 13.4258 10.0085 13.1484C10.0085 12.8281 10.0749 12.5508 10.2077 12.3164C10.3405 12.082 10.5397 11.8906 10.7858 11.7773C10.985 11.6836 11.2507 11.6367 11.5866 11.6367C11.9108 11.6367 12.153 11.668 12.3132 11.7227C12.4694 11.7773 12.6061 11.8711 12.7116 11.9961C12.8249 12.1328 12.9069 12.293 12.9499 12.4648L12.0788 12.6211C12.0475 12.5195 11.985 12.4297 11.8952 12.3672C11.7975 12.3047 11.6842 12.2734 11.5671 12.2813C11.3874 12.2734 11.2116 12.3516 11.0944 12.4883C10.9772 12.625 10.9186 12.8438 10.9186 13.1406C10.9186 13.457 10.9772 13.6836 11.0983 13.8203C11.2155 13.957 11.3835 14.0234 11.5983 14.0234C11.696 14.0234 11.7936 14.0078 11.8874 13.9805C11.9967 13.9414 12.1022 13.8906 12.2038 13.832V13.5586L11.5866 13.5508Z" fill="white"/>
</g>
<defs>
<clipPath id="clip0_1045_2539">
<rect width="20" height="20" fill="white"/>
</clipPath>
</defs>
</svg>
