<svg width="25" height="25" viewBox="0 0 25 25" fill="none" xmlns="http://www.w3.org/2000/svg">
<path d="M19.8203 25H5.17969C4.46094 25 3.875 24.4141 3.875 23.6953V4.73047C3.875 4.01172 4.46094 3.42578 5.17969 3.42578H7.66406C7.97266 3.42578 8.22266 3.67578 8.22266 3.98437C8.22266 4.29297 7.97266 4.54297 7.66406 4.54297H5.17969C5.07812 4.54297 4.99219 4.625 4.99219 4.73047V23.6953C4.99219 23.7969 5.07422 23.8828 5.17969 23.8828H19.8203C19.9219 23.8828 20.0078 23.8008 20.0078 23.6953V4.73047C20.0078 4.62891 19.9258 4.54297 19.8203 4.54297H17.332C17.0234 4.54297 16.7734 4.29297 16.7734 3.98437C16.7734 3.67578 17.0234 3.42578 17.332 3.42578H19.8203C20.5391 3.42578 21.125 4.01172 21.125 4.73047V23.6953C21.125 24.4141 20.5391 25 19.8203 25Z" fill="#F81FAC"/>
<path d="M9.87891 10.8945H7.41016C7.10156 10.8945 6.85156 10.6445 6.85156 10.3359V7.86719C6.85156 7.55859 7.10156 7.30859 7.41016 7.30859H9.87891C10.1875 7.30859 10.4375 7.55859 10.4375 7.86719V10.3359C10.4414 10.6445 10.1914 10.8945 9.87891 10.8945ZM7.96875 9.77734H9.32031V8.42578H7.96875V9.77734Z" fill="#F81FAC"/>
<path d="M17.5859 8.85156H11.8711C11.5625 8.85156 11.3125 8.60156 11.3125 8.29297C11.3125 7.98438 11.5625 7.73438 11.8711 7.73438H17.5859C17.8945 7.73438 18.1445 7.98438 18.1445 8.29297C18.1445 8.60156 17.8984 8.85156 17.5859 8.85156Z" fill="#F81FAC"/>
<path d="M15.5586 10.4727H11.8711C11.5625 10.4727 11.3125 10.2227 11.3125 9.91406C11.3125 9.60547 11.5625 9.35547 11.8711 9.35547H15.5586C15.8672 9.35547 16.1172 9.60547 16.1172 9.91406C16.1211 10.2227 15.8672 10.4727 15.5586 10.4727Z" fill="#F81FAC"/>
<path d="M9.87891 16.7734H7.41016C7.10156 16.7734 6.85156 16.5234 6.85156 16.2148V13.7461C6.85156 13.4375 7.10156 13.1875 7.41016 13.1875H9.87891C10.1875 13.1875 10.4375 13.4375 10.4375 13.7461V16.2148C10.4414 16.5234 10.1914 16.7734 9.87891 16.7734ZM7.96875 15.6523H9.32031V14.3008H7.96875V15.6523Z" fill="#F81FAC"/>
<path d="M17.5859 14.7266H11.8711C11.5625 14.7266 11.3125 14.4766 11.3125 14.168C11.3125 13.8594 11.5625 13.6094 11.8711 13.6094H17.5859C17.8945 13.6094 18.1445 13.8594 18.1445 14.168C18.1445 14.4766 17.8984 14.7266 17.5859 14.7266Z" fill="#F81FAC"/>
<path d="M15.5586 16.3477H11.8711C11.5625 16.3477 11.3125 16.0977 11.3125 15.7891C11.3125 15.4805 11.5625 15.2305 11.8711 15.2305H15.5586C15.8672 15.2305 16.1172 15.4805 16.1172 15.7891C16.1172 16.0977 15.8672 16.3477 15.5586 16.3477Z" fill="#F81FAC"/>
<path d="M9.87891 22.6484H7.41016C7.10156 22.6484 6.85156 22.3984 6.85156 22.0898V19.6211C6.85156 19.3125 7.10156 19.0625 7.41016 19.0625H9.87891C10.1875 19.0625 10.4375 19.3125 10.4375 19.6211V22.0898C10.4414 22.3984 10.1914 22.6484 9.87891 22.6484ZM7.96875 21.5312H9.32031V20.1797H7.96875V21.5312Z" fill="#F81FAC"/>
<path d="M16.0703 20.6016H11.8711C11.5625 20.6016 11.3125 20.3516 11.3125 20.043C11.3125 19.7344 11.5625 19.4844 11.8711 19.4844H16.0664C16.375 19.4844 16.625 19.7344 16.625 20.043C16.625 20.3516 16.3789 20.6016 16.0703 20.6016Z" fill="#F81FAC"/>
<path d="M15.5586 22.2266H11.8711C11.5625 22.2266 11.3125 21.9766 11.3125 21.668C11.3125 21.3594 11.5625 21.1094 11.8711 21.1094H15.5586C15.8672 21.1094 16.1172 21.3594 16.1172 21.668C16.1172 21.9766 15.8672 22.2266 15.5586 22.2266Z" fill="#F81FAC"/>
<path d="M16.5859 5.97656H8.41016C7.69141 5.97656 7.10547 5.39062 7.10547 4.67188V3.23438C7.10547 2.51562 7.69141 1.92969 8.41016 1.92969H10.3555C10.4688 0.847656 11.3867 0 12.5 0C13.6133 0 14.5273 0.847656 14.6406 1.92969H16.5859C17.3047 1.92969 17.8906 2.51562 17.8906 3.23438V4.66797C17.8906 5.39062 17.3047 5.97656 16.5859 5.97656ZM8.41016 3.05078C8.30859 3.05078 8.22266 3.13281 8.22266 3.23828V4.67188C8.22266 4.77344 8.30469 4.85938 8.41016 4.85938H16.5859C16.6875 4.85938 16.7734 4.77734 16.7734 4.67188V3.23438C16.7734 3.13281 16.6914 3.04688 16.5859 3.04688H14.0547C13.8867 3.04688 13.7266 2.96875 13.6172 2.83984C13.5117 2.70703 13.4688 2.53516 13.5078 2.36719C13.5234 2.29688 13.5312 2.21875 13.5312 2.14844C13.5312 1.57812 13.0664 1.11719 12.5 1.11719C11.9336 1.11719 11.4688 1.58203 11.4688 2.14844C11.4688 2.21875 11.4766 2.29297 11.4922 2.36719C11.5273 2.53125 11.4883 2.70703 11.3789 2.83594C11.2734 2.96875 11.1133 3.04297 10.9453 3.04297H8.41016V3.05078Z" fill="#F81FAC"/>
</svg>
