<svg width="15" height="15" viewBox="0 0 15 15" fill="none" xmlns="http://www.w3.org/2000/svg">
<path d="M3.88688 5.37658C3.97125 5.15955 3.86344 4.91486 3.64641 4.83048C3.42797 4.74611 3.18469 4.85345 3.10031 5.07095C2.60156 6.35439 2.90719 7.81173 3.87938 8.78345C3.96188 8.86548 4.06969 8.90673 4.1775 8.90673C4.28531 8.90673 4.39359 8.86548 4.47609 8.78298C4.64063 8.61798 4.64063 8.35126 4.47609 8.18673C3.74063 7.45126 3.50953 6.3483 3.88688 5.37658Z" fill="#1B1B1B"/>
<path d="M13.4766 10.8806L11.1755 8.57953C12.0905 6.60187 11.7403 4.17844 10.1123 2.55047C9.10265 1.54031 7.76015 0.984375 6.33187 0.984375C4.90406 0.984375 3.56109 1.54031 2.5514 2.55047C0.466874 4.635 0.466874 8.02687 2.5514 10.1114C3.5939 11.1539 4.96312 11.6747 6.33187 11.6747C7.10156 11.6747 7.8689 11.5041 8.58047 11.1745L10.8816 13.4752C11.2411 13.8342 11.7117 14.0137 12.1828 14.0137C12.6516 14.0137 13.1198 13.8356 13.4766 13.4794C14.1928 12.7631 14.1928 11.5969 13.4766 10.8806ZM3.14765 9.51469C1.39219 7.75875 1.39219 4.90219 3.14765 3.14672C3.99844 2.29641 5.12906 1.82812 6.33187 1.82812C7.53469 1.82812 8.66578 2.29641 9.51562 3.14672C11.2711 4.90219 11.2711 7.75875 9.51562 9.51469C7.76109 11.2697 4.90359 11.2702 3.14765 9.51469ZM12.8798 12.8827C12.4945 13.2675 11.8659 13.2652 11.4787 12.8784L9.34406 10.7442C9.61453 10.5595 9.87281 10.3509 10.1128 10.1109C10.3523 9.8714 10.5614 9.61265 10.7456 9.34219L12.8798 11.4764C13.2675 11.865 13.2675 12.495 12.8798 12.8827Z" fill="#1B1B1B"/>
</svg>
