<svg width="14" height="14" viewBox="0 0 14 14" fill="none" xmlns="http://www.w3.org/2000/svg">
<path d="M12.4886 10.2123L10.1875 7.83771C11.1025 5.7969 10.7523 3.29607 9.12433 1.61611C8.11465 0.573692 6.77215 0 5.34387 0C3.91605 0 2.57309 0.573692 1.5634 1.61611C-0.521133 3.76721 -0.521133 7.26741 1.5634 9.41851C2.6059 10.4943 3.97512 11.0317 5.34387 11.0317C6.11355 11.0317 6.8809 10.8556 7.59246 10.5156L9.89355 12.8897C10.2531 13.2602 10.7237 13.4455 11.1948 13.4455C11.6636 13.4455 12.1318 13.2617 12.4886 12.894C13.2048 12.1549 13.2048 10.9514 12.4886 10.2123ZM2.15965 8.80274C0.40418 6.99072 0.40418 4.04293 2.15965 2.2314C3.01043 1.35393 4.14105 0.870696 5.34387 0.870696C6.54668 0.870696 7.67777 1.35393 8.52762 2.2314C10.2831 4.04293 10.2831 6.99072 8.52762 8.80274C6.77308 10.6138 3.91559 10.6143 2.15965 8.80274ZM11.8918 12.2783C11.5065 12.6754 10.8779 12.673 10.4907 12.2739L8.35605 10.0715C8.62652 9.88095 8.8848 9.66569 9.1248 9.41803C9.36433 9.17085 9.5734 8.90383 9.75762 8.62473L11.8918 10.8271C12.2795 11.2281 12.2795 11.8782 11.8918 12.2783Z" fill="white"/>
</svg>
