<svg width="12" height="13" viewBox="0 0 12 13" fill="none" xmlns="http://www.w3.org/2000/svg">
<path d="M8.8014 0.5C10.842 0.5 11.994 1.6574 12 3.698V9.302C12 11.342 10.842 12.5 8.8014 12.5H3.198C1.1574 12.5 0 11.342 0 9.302V3.698C0 1.6574 1.1574 0.5 3.198 0.5H8.8014ZM6.3 2.978C6.1314 2.876 5.9274 2.876 5.766 2.978C5.6034 3.0794 5.514 3.266 5.5314 3.452V9.566C5.562 9.824 5.7774 10.016 6.0294 10.016C6.288 10.016 6.5034 9.824 6.5274 9.566V3.452C6.5514 3.266 6.462 3.0794 6.3 2.978ZM3.498 4.946C3.336 4.844 3.1314 4.844 2.97 4.946C2.8074 5.048 2.718 5.2334 2.736 5.42V9.566C2.7594 9.824 2.9754 10.016 3.2334 10.016C3.492 10.016 3.7074 9.824 3.7314 9.566V5.42C3.75 5.2334 3.6594 5.048 3.498 4.946ZM9.0534 7.124C8.892 7.022 8.688 7.022 8.52 7.124C8.3574 7.226 8.268 7.4054 8.292 7.598V9.566C8.316 9.824 8.5314 10.016 8.79 10.016C9.042 10.016 9.2574 9.824 9.288 9.566V7.598C9.3054 7.4054 9.216 7.226 9.0534 7.124Z" fill="#006EE9"/>
</svg>
