<svg width="15" height="15" viewBox="0 0 15 15" fill="none" xmlns="http://www.w3.org/2000/svg">
<g clip-path="url(#clip0_1045_2597)">
<path d="M14.1227 7.17188L13.6211 6.67031C13.457 6.50625 13.1875 6.51094 13.0164 6.67969L11.4648 8.23125V2.57812C11.4648 2.07422 11.057 1.66406 10.5555 1.66406H9.31797C9.18203 1.25391 8.8 0.95625 8.34531 0.95625H7.26953C7.16641 0.4125 6.68594 0 6.10938 0C5.53516 0 5.05234 0.4125 4.94688 0.95625H3.87109C3.41641 0.95625 3.03437 1.25391 2.89844 1.66406H1.66328C1.16172 1.66406 0.753906 2.07422 0.753906 2.57812V14.0883C0.753906 14.5922 1.16172 15 1.66328 15H10.5555C11.057 15 11.4648 14.5922 11.4648 14.0883V10.425L14.1133 7.77656C14.282 7.60781 14.2867 7.33594 14.1227 7.17188ZM11.0805 10.1672L11.0781 10.1695L10.007 11.2406L10.0047 11.243L9.48672 11.7609L9.03437 11.3086L10.3211 10.0219C10.3234 10.0195 10.3258 10.0172 10.3305 10.0125L12.6156 7.72734L13.068 8.17969L11.0805 10.1672ZM9.93906 9.76172L8.55156 11.1492C8.53047 11.1703 8.51641 11.1937 8.50469 11.2195L7.9 12.5977C7.8625 12.6844 7.88125 12.7828 7.94688 12.8508C7.99141 12.8906 8.05 12.9141 8.10859 12.9141C8.13906 12.9141 8.16953 12.907 8.2 12.8953L9.57812 12.2906C9.60391 12.2789 9.62734 12.2625 9.64844 12.2438L9.93906 11.9531V13.5773H2.27969V3.5625H9.93906V9.76172ZM8.78828 11.7047L9.09062 12.007L8.54922 12.2438L8.78828 11.7047ZM3.87109 1.41094H5.15078C5.27734 1.41094 5.37813 1.31016 5.37813 1.18359C5.37813 0.780469 5.70625 0.454688 6.10703 0.454688C6.51016 0.454688 6.83594 0.782813 6.83594 1.18359C6.83594 1.31016 6.93672 1.41094 7.06328 1.41094H8.34297C8.65937 1.41094 8.91719 1.66875 8.91719 1.98516V2.17266H3.29219V1.98516C3.29688 1.66875 3.55469 1.41094 3.87109 1.41094ZM11.0125 14.0883C11.0125 14.3391 10.8086 14.5453 10.5578 14.5453H1.66328C1.4125 14.5453 1.20859 14.3414 1.20859 14.0883V2.57812C1.20859 2.325 1.4125 2.11875 1.66328 2.11875H2.84219V2.40234C2.84219 2.52891 2.94297 2.62969 3.06953 2.62969H9.14922C9.27578 2.62969 9.37656 2.52891 9.37656 2.40234V2.11875H10.5578C10.8086 2.11875 11.0125 2.325 11.0125 2.57812V8.68828L10.3937 9.30703V3.33516C10.3937 3.20859 10.293 3.10781 10.1664 3.10781H2.05234C1.92578 3.10781 1.825 3.20859 1.825 3.33516V13.8023C1.825 13.9289 1.92578 14.0297 2.05234 14.0297H10.1664C10.293 14.0297 10.3937 13.9289 10.3937 13.8023V11.4961L11.0125 10.8773V14.0883ZM13.3891 7.85859L12.9367 7.40625L13.3258 7.01719L13.7781 7.46953L13.3891 7.85859Z" fill="#3D7DF6"/>
<path d="M3.24961 5.92744C3.2918 5.96963 3.35039 5.99307 3.41133 5.99307C3.47227 5.99307 3.52852 5.96963 3.57305 5.92744L4.42852 5.07197C4.51758 4.98291 4.51758 4.83994 4.42852 4.75088C4.33945 4.66182 4.19648 4.66182 4.10742 4.75088L3.41367 5.44463L3.22383 5.25479C3.13477 5.16572 2.9918 5.16572 2.90273 5.25479C2.81367 5.34385 2.81367 5.48682 2.90273 5.57588L3.24961 5.92744Z" fill="#3D7DF6"/>
<path d="M5.10625 5.5665H9.16094C9.2875 5.5665 9.38828 5.46572 9.38828 5.33916C9.38828 5.2126 9.2875 5.11182 9.16094 5.11182H5.10625C4.97969 5.11182 4.87891 5.2126 4.87891 5.33916C4.87891 5.46338 4.98203 5.5665 5.10625 5.5665Z" fill="#3D7DF6"/>
<path d="M3.24961 8.07881C3.2918 8.121 3.35039 8.14443 3.41133 8.14443C3.47227 8.14443 3.52852 8.121 3.57305 8.07881L4.42852 7.22334C4.51758 7.13428 4.51758 6.99131 4.42852 6.90225C4.33945 6.81318 4.19648 6.81318 4.10742 6.90225L3.41367 7.596L3.22383 7.40615C3.13477 7.31709 2.9918 7.31709 2.90273 7.40615C2.81367 7.49521 2.81367 7.63818 2.90273 7.72725L3.24961 8.07881Z" fill="#3D7DF6"/>
<path d="M5.10625 7.71787H9.16094C9.2875 7.71787 9.38828 7.61709 9.38828 7.49053C9.38828 7.36396 9.2875 7.26318 9.16094 7.26318H5.10625C4.97969 7.26318 4.87891 7.36396 4.87891 7.49053C4.87891 7.61709 4.98203 7.71787 5.10625 7.71787Z" fill="#3D7DF6"/>
<path d="M3.24961 10.2329C3.2918 10.275 3.35039 10.2985 3.41133 10.2985C3.47227 10.2985 3.52852 10.275 3.57305 10.2329L4.42852 9.37739C4.51758 9.28833 4.51758 9.14536 4.42852 9.0563C4.33945 8.96724 4.19648 8.96724 4.10742 9.0563L3.41367 9.75005L3.22383 9.56021C3.13477 9.47114 2.9918 9.47114 2.90273 9.56021C2.81367 9.64927 2.81367 9.79224 2.90273 9.8813L3.24961 10.2329Z" fill="#3D7DF6"/>
<path d="M5.10625 9.87192H8.70625C8.83281 9.87192 8.93359 9.77114 8.93359 9.64458C8.93359 9.51802 8.83281 9.41724 8.70625 9.41724H5.10625C4.97969 9.41724 4.87891 9.51802 4.87891 9.64458C4.87891 9.7688 4.98203 9.87192 5.10625 9.87192Z" fill="#3D7DF6"/>
<path d="M3.24961 12.3845C3.2918 12.4267 3.35039 12.4501 3.41133 12.4501C3.47227 12.4501 3.52852 12.4267 3.57305 12.3845L4.42852 11.529C4.51758 11.4399 4.51758 11.297 4.42852 11.2079C4.33945 11.1188 4.19648 11.1188 4.10742 11.2079L3.41367 11.9017L3.22383 11.7118C3.13477 11.6228 2.9918 11.6228 2.90273 11.7118C2.81367 11.8009 2.81367 11.9438 2.90273 12.0329L3.24961 12.3845Z" fill="#3D7DF6"/>
<path d="M5.10625 12.0235H7.34219C7.46875 12.0235 7.56953 11.9228 7.56953 11.7962C7.56953 11.6696 7.46875 11.5688 7.34219 11.5688H5.10625C4.97969 11.5688 4.87891 11.6696 4.87891 11.7962C4.87891 11.9228 4.98203 12.0235 5.10625 12.0235Z" fill="#3D7DF6"/>
</g>
<defs>
<clipPath id="clip0_1045_2597">
<rect width="15" height="15" fill="white"/>
</clipPath>
</defs>
</svg>
