<svg width="60" height="60" viewBox="0 0 60 60" fill="none" xmlns="http://www.w3.org/2000/svg">
<g clip-path="url(#clip0_448_7386)">
<path d="M30 0C13.457 0 0 13.457 0 30C0 46.543 13.457 60 30 60C46.543 60 60 46.5407 60 30C60 13.4593 46.543 0 30 0ZM30 55.3525C16.0225 55.3525 4.64754 43.9799 4.64754 30C4.64754 16.0201 16.0225 4.64754 30 4.64754C43.9799 4.64754 55.3525 16.0201 55.3525 30C55.3525 43.9799 43.9775 55.3525 30 55.3525Z" fill="white"/>
<path d="M43.7633 19.5663C42.8175 18.7065 41.3465 18.7739 40.4822 19.7243L26.3071 35.3332L19.4589 28.3712C18.5549 27.4556 17.0863 27.4417 16.173 28.3433C15.2574 29.2426 15.2435 30.7136 16.1451 31.6291L24.7175 40.3433C25.1567 40.7895 25.7516 41.0381 26.3743 41.0381C26.3883 41.0381 26.4046 41.0381 26.4185 41.0405C27.0599 41.0265 27.6641 40.7523 28.0939 40.2783L43.9212 22.8499C44.7834 21.8971 44.7137 20.4285 43.7633 19.5663Z" fill="white"/>
</g>
<defs>
<clipPath id="clip0_448_7386">
<rect width="60" height="60" fill="white"/>
</clipPath>
</defs>
</svg>
