<svg width="15" height="20" viewBox="0 0 15 20" fill="none" xmlns="http://www.w3.org/2000/svg">
<path d="M13.3559 20.0001H1.64336C1.06836 20.0001 0.599609 19.5313 0.599609 18.9563V3.78447C0.599609 3.20947 1.06836 2.74072 1.64336 2.74072H3.63086C3.87773 2.74072 4.07773 2.94072 4.07773 3.1876C4.07773 3.43447 3.87773 3.63447 3.63086 3.63447H1.64336C1.56211 3.63447 1.49336 3.7001 1.49336 3.78447V18.9563C1.49336 19.0376 1.55898 19.1063 1.64336 19.1063H13.3559C13.4371 19.1063 13.5059 19.0407 13.5059 18.9563V3.78447C13.5059 3.70322 13.4402 3.63447 13.3559 3.63447H11.3652C11.1184 3.63447 10.9184 3.43447 10.9184 3.1876C10.9184 2.94072 11.1184 2.74072 11.3652 2.74072H13.3559C13.9309 2.74072 14.3996 3.20947 14.3996 3.78447V18.9563C14.3996 19.5313 13.9309 20.0001 13.3559 20.0001Z" fill="#3D7DF6"/>
<path d="M5.40234 8.71592H3.42734C3.18047 8.71592 2.98047 8.51592 2.98047 8.26904V6.29404C2.98047 6.04717 3.18047 5.84717 3.42734 5.84717H5.40234C5.64922 5.84717 5.84922 6.04717 5.84922 6.29404V8.26904C5.85234 8.51592 5.65234 8.71592 5.40234 8.71592ZM3.87422 7.82217H4.95547V6.74092H3.87422V7.82217Z" fill="#3D7DF6"/>
<path d="M11.5676 7.08174H6.9957C6.74883 7.08174 6.54883 6.88174 6.54883 6.63486C6.54883 6.38799 6.74883 6.18799 6.9957 6.18799H11.5676C11.8145 6.18799 12.0145 6.38799 12.0145 6.63486C12.0145 6.88174 11.8176 7.08174 11.5676 7.08174Z" fill="#3D7DF6"/>
<path d="M9.9457 8.37861H6.9957C6.74883 8.37861 6.54883 8.17861 6.54883 7.93174C6.54883 7.68486 6.74883 7.48486 6.9957 7.48486H9.9457C10.1926 7.48486 10.3926 7.68486 10.3926 7.93174C10.3957 8.17861 10.1926 8.37861 9.9457 8.37861Z" fill="#3D7DF6"/>
<path d="M5.40234 13.419H3.42734C3.18047 13.419 2.98047 13.219 2.98047 12.9722V10.9972C2.98047 10.7503 3.18047 10.5503 3.42734 10.5503H5.40234C5.64922 10.5503 5.84922 10.7503 5.84922 10.9972V12.9722C5.85234 13.219 5.65234 13.419 5.40234 13.419ZM3.87422 12.5222H4.95547V11.4409H3.87422V12.5222Z" fill="#3D7DF6"/>
<path d="M11.5676 11.7814H6.9957C6.74883 11.7814 6.54883 11.5814 6.54883 11.3346C6.54883 11.0877 6.74883 10.8877 6.9957 10.8877H11.5676C11.8145 10.8877 12.0145 11.0877 12.0145 11.3346C12.0145 11.5814 11.8176 11.7814 11.5676 11.7814Z" fill="#3D7DF6"/>
<path d="M9.9457 13.0783H6.9957C6.74883 13.0783 6.54883 12.8783 6.54883 12.6314C6.54883 12.3846 6.74883 12.1846 6.9957 12.1846H9.9457C10.1926 12.1846 10.3926 12.3846 10.3926 12.6314C10.3926 12.8783 10.1926 13.0783 9.9457 13.0783Z" fill="#3D7DF6"/>
<path d="M5.40234 18.1192H3.42734C3.18047 18.1192 2.98047 17.9192 2.98047 17.6724V15.6974C2.98047 15.4505 3.18047 15.2505 3.42734 15.2505H5.40234C5.64922 15.2505 5.84922 15.4505 5.84922 15.6974V17.6724C5.85234 17.9192 5.65234 18.1192 5.40234 18.1192ZM3.87422 17.2255H4.95547V16.1442H3.87422V17.2255Z" fill="#3D7DF6"/>
<path d="M10.3551 16.4816H6.9957C6.74883 16.4816 6.54883 16.2816 6.54883 16.0348C6.54883 15.7879 6.74883 15.5879 6.9957 15.5879H10.352C10.5988 15.5879 10.7988 15.7879 10.7988 16.0348C10.7988 16.2816 10.602 16.4816 10.3551 16.4816Z" fill="#3D7DF6"/>
<path d="M9.9457 17.7814H6.9957C6.74883 17.7814 6.54883 17.5814 6.54883 17.3346C6.54883 17.0877 6.74883 16.8877 6.9957 16.8877H9.9457C10.1926 16.8877 10.3926 17.0877 10.3926 17.3346C10.3926 17.5814 10.1926 17.7814 9.9457 17.7814Z" fill="#3D7DF6"/>
<path d="M10.768 4.78125H4.22734C3.65234 4.78125 3.18359 4.3125 3.18359 3.7375V2.5875C3.18359 2.0125 3.65234 1.54375 4.22734 1.54375H5.78359C5.87422 0.678125 6.60859 0 7.49922 0C8.38984 0 9.12109 0.678125 9.21172 1.54375H10.768C11.343 1.54375 11.8117 2.0125 11.8117 2.5875V3.73438C11.8117 4.3125 11.343 4.78125 10.768 4.78125ZM4.22734 2.44062C4.14609 2.44062 4.07734 2.50625 4.07734 2.59063V3.7375C4.07734 3.81875 4.14297 3.8875 4.22734 3.8875H10.768C10.8492 3.8875 10.918 3.82188 10.918 3.7375V2.5875C10.918 2.50625 10.8523 2.4375 10.768 2.4375H8.74297C8.60859 2.4375 8.48047 2.375 8.39297 2.27187C8.30859 2.16563 8.27422 2.02813 8.30547 1.89375C8.31797 1.8375 8.32422 1.775 8.32422 1.71875C8.32422 1.2625 7.95234 0.89375 7.49922 0.89375C7.04609 0.89375 6.67422 1.26562 6.67422 1.71875C6.67422 1.775 6.68047 1.83438 6.69297 1.89375C6.72109 2.025 6.68984 2.16563 6.60234 2.26875C6.51797 2.375 6.38984 2.43438 6.25547 2.43438H4.22734V2.44062Z" fill="#3D7DF6"/>
</svg>
