<svg width="20" height="20" viewBox="0 0 20 20" fill="none" xmlns="http://www.w3.org/2000/svg">
<path d="M14.7306 2.69062H13.2325L13.0112 2.13688C12.8125 1.63625 12.335 1.3125 11.7962 1.3125H8.20374C7.66499 1.3125 7.18749 1.63625 6.98874 2.13625L6.76749 2.69062H5.26936C3.82124 2.69062 2.64249 3.86875 2.64249 5.3175V16.0606C2.64249 17.5088 3.82124 18.6875 5.26936 18.6875H14.7312C16.1794 18.6875 17.3581 17.5088 17.3581 16.0606V5.3175C17.3575 3.86875 16.1794 2.69062 14.7306 2.69062ZM7.52811 3.81938L8.03374 2.5525C8.06124 2.4825 8.12811 2.4375 8.20374 2.4375H11.7962C11.8719 2.4375 11.9387 2.4825 11.9662 2.55313L12.4719 3.82C12.5037 3.89813 12.4744 3.96063 12.4537 3.99063C12.4337 4.02063 12.3869 4.07125 12.3019 4.07125H7.69874C7.61374 4.07125 7.56686 4.02063 7.54686 3.99063C7.52561 3.96063 7.49624 3.89813 7.52811 3.81938ZM16.2325 16.0606C16.2325 16.8888 15.5594 17.5619 14.7312 17.5619H5.26936C4.44124 17.5619 3.76811 16.8888 3.76811 16.0606V5.3175C3.76811 4.48938 4.44124 3.81563 5.26936 3.81563H6.39999C6.38436 4.0975 6.45186 4.38063 6.61499 4.62125C6.85874 4.98125 7.26374 5.19562 7.69811 5.19562H12.3012C12.7356 5.19562 13.1412 4.98063 13.385 4.62063C13.5475 4.38 13.615 4.09688 13.5994 3.815H14.73C15.5581 3.815 16.2312 4.48875 16.2312 5.31687V16.0606H16.2325Z" fill="#5A5A5A"/>
<path d="M13.4519 9.54004H6.54813C6.2375 9.54004 5.98563 9.79191 5.98563 10.1025C5.98563 10.4132 6.2375 10.665 6.54813 10.665H13.4525C13.7631 10.665 14.015 10.4132 14.015 10.1025C14.015 9.79191 13.7631 9.54004 13.4519 9.54004Z" fill="#5A5A5A"/>
<path d="M11.8856 12.0938H8.11499C7.80437 12.0938 7.55249 12.3456 7.55249 12.6562C7.55249 12.9669 7.80437 13.2187 8.11499 13.2187H11.8856C12.1962 13.2187 12.4481 12.9669 12.4481 12.6562C12.4481 12.3456 12.1962 12.0938 11.8856 12.0938Z" fill="#5A5A5A"/>
</svg>
